<svg width="8" height="7" viewBox="0 0 8 7" fill="none" xmlns="http://www.w3.org/2000/svg">
<path fill-rule="evenodd" clip-rule="evenodd" d="M0.399963 3.74289C0.399963 3.86407 0.447368 3.98029 0.53175 4.06597C0.616132 4.15166 0.730579 4.1998 0.849914 4.1998H6.06304L4.13095 6.16085C4.08912 6.20334 4.05593 6.25377 4.03329 6.30927C4.01065 6.36478 3.999 6.42427 3.999 6.48435C3.999 6.54443 4.01065 6.60392 4.03329 6.65942C4.05593 6.71492 4.08912 6.76536 4.13095 6.80784C4.17279 6.85032 4.22245 6.88402 4.27711 6.90701C4.33177 6.93 4.39035 6.94183 4.44952 6.94183C4.50868 6.94183 4.56726 6.93 4.62192 6.90701C4.67658 6.88402 4.72625 6.85032 4.76808 6.80784L7.46779 4.06638C7.50969 4.02394 7.54293 3.97352 7.56562 3.91801C7.5883 3.8625 7.59998 3.80299 7.59998 3.74289C7.59998 3.68279 7.5883 3.62328 7.56562 3.56777C7.54293 3.51226 7.50969 3.46184 7.46779 3.4194L4.76808 0.67794C4.68359 0.592145 4.569 0.543945 4.44952 0.543945C4.33003 0.543945 4.21544 0.592145 4.13095 0.67794C4.04646 0.763736 3.999 0.880099 3.999 1.00143C3.999 1.12277 4.04646 1.23913 4.13095 1.32492L6.06304 3.28598H0.849914C0.730579 3.28598 0.616132 3.33412 0.53175 3.41981C0.447368 3.50549 0.399963 3.62171 0.399963 3.74289Z" fill="#293037"/>
</svg>
