<svg width="12" height="12" viewBox="0 0 12 12" fill="none" xmlns="http://www.w3.org/2000/svg">
<path fill-rule="evenodd" clip-rule="evenodd" d="M2.30355 0.39555L5.66505 3.75687L9.02475 0.39933C9.55215 -0.12807 10.4054 -0.12807 10.9328 0.39933C11.4602 0.92673 11.4602 1.77993 10.9328 2.30733L7.57305 5.66487L10.9364 9.03015C11.4638 9.55755 11.4638 10.4107 10.9364 10.9381C10.6736 11.2027 10.3261 11.3341 9.98235 11.3341C9.63675 11.3341 9.29115 11.2027 9.02835 10.9381L5.66505 7.57287L2.30715 10.9329C2.04435 11.1975 1.69875 11.3289 1.35315 11.3289C1.00755 11.3289 0.661951 11.1975 0.399151 10.9329C-0.128249 10.4055 -0.128249 9.55233 0.399151 9.02493L3.75705 5.66487L0.39555 2.30355C-0.13185 1.77615 -0.13185 0.92295 0.39555 0.39555C0.92475 -0.13185 1.77795 -0.13185 2.30355 0.39555Z" fill="white"/>
</svg>
