<svg width="70" height="25" viewBox="0 0 70 25" fill="none" xmlns="http://www.w3.org/2000/svg">
<path fill-rule="evenodd" clip-rule="evenodd" d="M38.7598 0.608032L45.6162 7.53369C49.3827 11.361 49.4053 17.5577 45.6162 21.385C41.8271 25.2123 35.6924 25.2123 31.9033 21.385C28.1143 17.5577 28.1143 11.361 31.9033 7.53369L38.7598 0.608032ZM44.1105 17.6376L43.5207 16.6158C43.4517 16.4962 43.3438 16.4038 43.215 16.3538C43.0862 16.3039 42.9442 16.2995 42.8126 16.3414L41.6992 16.6958C41.5599 16.5934 41.4151 16.4983 41.2655 16.4117C41.1049 16.3178 40.939 16.2336 40.7694 16.1585L40.5198 15.0178C40.4904 14.8828 40.4157 14.762 40.3082 14.6753C40.2006 14.5886 40.0667 14.5412 39.9286 14.5411H37.7236C37.5855 14.5412 37.4515 14.5886 37.344 14.6753C37.2365 14.762 37.1618 14.8828 37.1324 15.0178L36.8852 16.1578C36.7241 16.2275 36.5666 16.3057 36.4133 16.3917C36.2546 16.4837 36.1008 16.5855 35.9529 16.6945L34.8402 16.3402C34.7084 16.2982 34.5663 16.3025 34.4374 16.3524C34.3085 16.4023 34.2005 16.4948 34.1314 16.6146L33.479 17.7449C32.2 15.4172 32.5394 12.4311 34.497 10.4725L38.7823 6.144L43.0676 10.4725C44.9586 12.4012 45.3103 15.3261 44.1105 17.6376ZM41.2357 20.3681C41.1824 19.8101 40.9367 19.2851 40.537 18.8853C40.0826 18.4309 39.4663 18.1756 38.8237 18.1756C38.181 18.1756 37.5647 18.4309 37.1103 18.8853C36.6987 19.2969 36.4504 19.8414 36.4073 20.418C37.945 21.0781 39.7026 21.0615 41.2357 20.3681Z" fill="#C1844D"/>
<path d="M0 11.2763V7.26392H2.17335V3.58594H6.85442V7.26392H11.6692V11.2763H6.85442V20.304H11.8698V24.3164H2.17335V11.2763H0Z" fill="#293037"/>
<path d="M13.1916 11.2763V7.26392H15.365V3.58594H20.046V7.26392H24.8608V11.2763H20.046V20.304H25.0615V24.3164H15.365V11.2763H13.1916Z" fill="#293037"/>
<path d="M53.2186 4.27983C52.7059 3.76714 52.4496 3.17644 52.4496 2.50771C52.4496 1.83899 52.7059 1.25943 53.2186 0.769032C53.7536 0.256344 54.3889 0 55.1245 0C55.8601 0 56.4842 0.256344 56.9969 0.769032C57.5319 1.25943 57.7994 1.83899 57.7994 2.50771C57.7994 3.17644 57.5319 3.76714 56.9969 4.27983C56.4842 4.77023 55.8601 5.01543 55.1245 5.01543C54.3889 5.01543 53.7536 4.77023 53.2186 4.27983ZM52.7839 24.2412V7.18878H57.465V24.2412H52.7839Z" fill="#293037"/>
<path d="M61.143 24.2412V0.835903H65.8241V20.2289H69.6692V24.2412H61.143Z" fill="#293037"/>
</svg>
