<svg width="69" height="25" viewBox="0 0 69 25" fill="none" xmlns="http://www.w3.org/2000/svg">
<path fill-rule="evenodd" clip-rule="evenodd" d="M38.3772 0.60791L45.2336 7.53357C49.0001 11.3609 49.0227 17.5575 45.2336 21.3849C41.4445 25.2122 35.3098 25.2122 31.5208 21.3849C27.7317 17.5575 27.7317 11.3609 31.5208 7.53357L38.3772 0.60791ZM43.728 17.6375L43.1382 16.6157C43.0691 16.4961 42.9612 16.4036 42.8324 16.3537C42.7036 16.3038 42.5617 16.2994 42.43 16.3413L41.3166 16.6956C41.1773 16.5933 41.0325 16.4982 40.8829 16.4115C40.7224 16.3176 40.5564 16.2334 40.3868 16.1583L40.1372 15.0177C40.1078 14.8827 40.0331 14.7619 39.9256 14.6752C39.8181 14.5884 39.6841 14.5411 39.546 14.5409H37.341C37.2029 14.5411 37.0689 14.5884 36.9614 14.6752C36.8539 14.7619 36.7792 14.8827 36.7498 15.0177L36.5026 16.1577C36.3415 16.2274 36.184 16.3055 36.0308 16.3915C35.872 16.4836 35.7182 16.5854 35.5704 16.6944L34.4576 16.3401C34.3259 16.2981 34.1838 16.3024 34.0548 16.3523C33.9259 16.4022 33.8179 16.4947 33.7489 16.6145L33.0964 17.7448C31.8175 15.4171 32.1568 12.431 34.1145 10.4724L38.3997 6.14388L42.685 10.4724C44.576 12.401 44.9277 15.326 43.728 17.6375ZM40.8531 20.368C40.7998 19.81 40.5542 19.2849 40.1544 18.8852C39.7 18.4308 39.0837 18.1755 38.4411 18.1755C37.7985 18.1755 37.1821 18.4308 36.7277 18.8852C36.3161 19.2968 36.0679 19.8413 36.0248 20.4178C37.5624 21.078 39.3201 21.0613 40.8531 20.368Z" fill="#C1844D"/>
<path d="M0 11.2763V7.26392H2.17335V3.58594H6.85442V7.26392H11.6692V11.2763H6.85442V20.304H11.8698V24.3164H2.17335V11.2763H0Z" fill="white"/>
<path d="M13.1916 11.2763V7.26392H15.365V3.58594H20.046V7.26392H24.8608V11.2763H20.046V20.304H25.0615V24.3164H15.365V11.2763H13.1916Z" fill="white"/>
<path d="M52.5493 4.27983C52.0366 3.76714 51.7803 3.17644 51.7803 2.50771C51.7803 1.83899 52.0366 1.25943 52.5493 0.769032C53.0843 0.256344 53.7196 0 54.4552 0C55.1908 0 55.8149 0.256344 56.3276 0.769032C56.8626 1.25943 57.1301 1.83899 57.1301 2.50771C57.1301 3.17644 56.8626 3.76714 56.3276 4.27983C55.8149 4.77023 55.1908 5.01543 54.4552 5.01543C53.7196 5.01543 53.0843 4.77023 52.5493 4.27983ZM52.1146 24.2412V7.18878H56.7957V24.2412H52.1146Z" fill="white"/>
<path d="M60.4737 24.2412V0.835903H65.1547V20.2289H68.9999V24.2412H60.4737Z" fill="white"/>
</svg>
