<svg width="132" height="27" viewBox="0 0 132 27" fill="none" xmlns="http://www.w3.org/2000/svg">
<path d="M16.1211 17.5098H21.377C21.2715 19.2324 20.7969 20.7617 19.9531 22.0977C19.1211 23.4336 17.9551 24.4766 16.4551 25.2266C14.9668 25.9766 13.1738 26.3516 11.0762 26.3516C9.43555 26.3516 7.96484 26.0703 6.66406 25.5078C5.36328 24.9336 4.25 24.1133 3.32422 23.0469C2.41016 21.9805 1.71289 20.6914 1.23242 19.1797C0.751953 17.668 0.511719 15.9746 0.511719 14.0996V12.3242C0.511719 10.4492 0.757812 8.75586 1.25 7.24414C1.75391 5.7207 2.46875 4.42578 3.39453 3.35938C4.33203 2.29297 5.45117 1.47266 6.75195 0.898438C8.05273 0.324219 9.50586 0.0371094 11.1113 0.0371094C13.2441 0.0371094 15.043 0.423828 16.5078 1.19727C17.9844 1.9707 19.127 3.03711 19.9355 4.39648C20.7559 5.75586 21.248 7.30273 21.4121 9.03711H16.1387C16.0801 8.00586 15.875 7.13281 15.5234 6.41797C15.1719 5.69141 14.6387 5.14648 13.9238 4.7832C13.2207 4.4082 12.2832 4.2207 11.1113 4.2207C10.2324 4.2207 9.46484 4.38477 8.80859 4.71289C8.15234 5.04102 7.60156 5.53906 7.15625 6.20703C6.71094 6.875 6.37695 7.71875 6.1543 8.73828C5.94336 9.74609 5.83789 10.9297 5.83789 12.2891V14.0996C5.83789 15.4238 5.9375 16.5898 6.13672 17.5977C6.33594 18.5938 6.64062 19.4375 7.05078 20.1289C7.47266 20.8086 8.01172 21.3242 8.66797 21.6758C9.33594 22.0156 10.1387 22.1855 11.0762 22.1855C12.1777 22.1855 13.0859 22.0098 13.8008 21.6582C14.5156 21.3066 15.0605 20.7852 15.4355 20.0938C15.8223 19.4023 16.0508 18.541 16.1211 17.5098ZM29.5859 11.1289V26H24.5234V6.98047H29.2871L29.5859 11.1289ZM35.3164 6.85742L35.2285 11.5508C34.9824 11.5156 34.6836 11.4863 34.332 11.4629C33.9922 11.4277 33.6816 11.4102 33.4004 11.4102C32.6855 11.4102 32.0645 11.5039 31.5371 11.6914C31.0215 11.8672 30.5879 12.1309 30.2363 12.4824C29.8965 12.834 29.6387 13.2617 29.4629 13.7656C29.2988 14.2695 29.2051 14.8438 29.1816 15.4883L28.1621 15.1719C28.1621 13.9414 28.2852 12.8105 28.5312 11.7793C28.7773 10.7363 29.1348 9.82812 29.6035 9.05469C30.084 8.28125 30.6699 7.68359 31.3613 7.26172C32.0527 6.83984 32.8438 6.62891 33.7344 6.62891C34.0156 6.62891 34.3027 6.65234 34.5957 6.69922C34.8887 6.73438 35.1289 6.78711 35.3164 6.85742ZM36.3711 16.6836V16.3145C36.3711 14.9199 36.5703 13.6367 36.9688 12.4648C37.3672 11.2812 37.9473 10.2559 38.709 9.38867C39.4707 8.52148 40.4082 7.84766 41.5215 7.36719C42.6348 6.875 43.9121 6.62891 45.3535 6.62891C46.7949 6.62891 48.0781 6.875 49.2031 7.36719C50.3281 7.84766 51.2715 8.52148 52.0332 9.38867C52.8066 10.2559 53.3926 11.2812 53.791 12.4648C54.1895 13.6367 54.3887 14.9199 54.3887 16.3145V16.6836C54.3887 18.0664 54.1895 19.3496 53.791 20.5332C53.3926 21.7051 52.8066 22.7305 52.0332 23.6094C51.2715 24.4766 50.334 25.1504 49.2207 25.6309C48.1074 26.1113 46.8301 26.3516 45.3887 26.3516C43.9473 26.3516 42.6641 26.1113 41.5391 25.6309C40.4258 25.1504 39.4824 24.4766 38.709 23.6094C37.9473 22.7305 37.3672 21.7051 36.9688 20.5332C36.5703 19.3496 36.3711 18.0664 36.3711 16.6836ZM41.4336 16.3145V16.6836C41.4336 17.4805 41.5039 18.2246 41.6445 18.916C41.7852 19.6074 42.0078 20.2168 42.3125 20.7441C42.6289 21.2598 43.0391 21.6641 43.543 21.957C44.0469 22.25 44.6621 22.3965 45.3887 22.3965C46.0918 22.3965 46.6953 22.25 47.1992 21.957C47.7031 21.6641 48.1074 21.2598 48.4121 20.7441C48.7168 20.2168 48.9395 19.6074 49.0801 18.916C49.2324 18.2246 49.3086 17.4805 49.3086 16.6836V16.3145C49.3086 15.541 49.2324 14.8145 49.0801 14.1348C48.9395 13.4434 48.7109 12.834 48.3945 12.3066C48.0898 11.7676 47.6855 11.3457 47.1816 11.041C46.6777 10.7363 46.0684 10.584 45.3535 10.584C44.6387 10.584 44.0293 10.7363 43.5254 11.041C43.0332 11.3457 42.6289 11.7676 42.3125 12.3066C42.0078 12.834 41.7852 13.4434 41.6445 14.1348C41.5039 14.8145 41.4336 15.541 41.4336 16.3145ZM67.7832 20.7441C67.7832 20.3809 67.6777 20.0527 67.4668 19.7598C67.2559 19.4668 66.8633 19.1973 66.2891 18.9512C65.7266 18.6934 64.9121 18.459 63.8457 18.248C62.8848 18.0371 61.9883 17.7734 61.1562 17.457C60.3359 17.1289 59.6211 16.7363 59.0117 16.2793C58.4141 15.8223 57.9453 15.2832 57.6055 14.6621C57.2656 14.0293 57.0957 13.3086 57.0957 12.5C57.0957 11.7031 57.2656 10.9531 57.6055 10.25C57.957 9.54688 58.4551 8.92578 59.0996 8.38672C59.7559 7.83594 60.5527 7.4082 61.4902 7.10352C62.4395 6.78711 63.5059 6.62891 64.6895 6.62891C66.3418 6.62891 67.7598 6.89258 68.9434 7.41992C70.1387 7.94727 71.0527 8.67383 71.6855 9.59961C72.3301 10.5137 72.6523 11.5566 72.6523 12.7285H67.5898C67.5898 12.2363 67.4844 11.7969 67.2734 11.4102C67.0742 11.0117 66.7578 10.7012 66.3242 10.4785C65.9023 10.2441 65.3516 10.127 64.6719 10.127C64.1094 10.127 63.623 10.2266 63.2129 10.4258C62.8027 10.6133 62.4863 10.8711 62.2637 11.1992C62.0527 11.5156 61.9473 11.8672 61.9473 12.2539C61.9473 12.5469 62.0059 12.8105 62.123 13.0449C62.252 13.2676 62.457 13.4727 62.7383 13.6602C63.0195 13.8477 63.3828 14.0234 63.8281 14.1875C64.2852 14.3398 64.8477 14.4805 65.5156 14.6094C66.8867 14.8906 68.1113 15.2598 69.1895 15.7168C70.2676 16.1621 71.123 16.7715 71.7559 17.5449C72.3887 18.3066 72.7051 19.3086 72.7051 20.5508C72.7051 21.3945 72.5176 22.168 72.1426 22.8711C71.7676 23.5742 71.2285 24.1895 70.5254 24.7168C69.8223 25.2324 68.9785 25.6367 67.9941 25.9297C67.0215 26.2109 65.9258 26.3516 64.707 26.3516C62.9375 26.3516 61.4375 26.0352 60.207 25.4023C58.9883 24.7695 58.0625 23.9668 57.4297 22.9941C56.8086 22.0098 56.498 21.002 56.498 19.9707H61.2969C61.3203 20.6621 61.4961 21.2188 61.8242 21.6406C62.1641 22.0625 62.5918 22.3672 63.1074 22.5547C63.6348 22.7422 64.2031 22.8359 64.8125 22.8359C65.4688 22.8359 66.0137 22.748 66.4473 22.5723C66.8809 22.3848 67.209 22.1387 67.4316 21.834C67.666 21.5176 67.7832 21.1543 67.7832 20.7441ZM86.2754 20.7441C86.2754 20.3809 86.1699 20.0527 85.959 19.7598C85.748 19.4668 85.3555 19.1973 84.7812 18.9512C84.2188 18.6934 83.4043 18.459 82.3379 18.248C81.377 18.0371 80.4805 17.7734 79.6484 17.457C78.8281 17.1289 78.1133 16.7363 77.5039 16.2793C76.9062 15.8223 76.4375 15.2832 76.0977 14.6621C75.7578 14.0293 75.5879 13.3086 75.5879 12.5C75.5879 11.7031 75.7578 10.9531 76.0977 10.25C76.4492 9.54688 76.9473 8.92578 77.5918 8.38672C78.248 7.83594 79.0449 7.4082 79.9824 7.10352C80.9316 6.78711 81.998 6.62891 83.1816 6.62891C84.834 6.62891 86.252 6.89258 87.4355 7.41992C88.6309 7.94727 89.5449 8.67383 90.1777 9.59961C90.8223 10.5137 91.1445 11.5566 91.1445 12.7285H86.082C86.082 12.2363 85.9766 11.7969 85.7656 11.4102C85.5664 11.0117 85.25 10.7012 84.8164 10.4785C84.3945 10.2441 83.8438 10.127 83.1641 10.127C82.6016 10.127 82.1152 10.2266 81.7051 10.4258C81.2949 10.6133 80.9785 10.8711 80.7559 11.1992C80.5449 11.5156 80.4395 11.8672 80.4395 12.2539C80.4395 12.5469 80.498 12.8105 80.6152 13.0449C80.7441 13.2676 80.9492 13.4727 81.2305 13.6602C81.5117 13.8477 81.875 14.0234 82.3203 14.1875C82.7773 14.3398 83.3398 14.4805 84.0078 14.6094C85.3789 14.8906 86.6035 15.2598 87.6816 15.7168C88.7598 16.1621 89.6152 16.7715 90.248 17.5449C90.8809 18.3066 91.1973 19.3086 91.1973 20.5508C91.1973 21.3945 91.0098 22.168 90.6348 22.8711C90.2598 23.5742 89.7207 24.1895 89.0176 24.7168C88.3145 25.2324 87.4707 25.6367 86.4863 25.9297C85.5137 26.2109 84.418 26.3516 83.1992 26.3516C81.4297 26.3516 79.9297 26.0352 78.6992 25.4023C77.4805 24.7695 76.5547 23.9668 75.9219 22.9941C75.3008 22.0098 74.9902 21.002 74.9902 19.9707H79.7891C79.8125 20.6621 79.9883 21.2188 80.3164 21.6406C80.6562 22.0625 81.084 22.3672 81.5996 22.5547C82.127 22.7422 82.6953 22.8359 83.3047 22.8359C83.9609 22.8359 84.5059 22.748 84.9395 22.5723C85.373 22.3848 85.7012 22.1387 85.9238 21.834C86.1582 21.5176 86.2754 21.1543 86.2754 20.7441ZM93.6758 16.6836V16.3145C93.6758 14.9199 93.875 13.6367 94.2734 12.4648C94.6719 11.2812 95.252 10.2559 96.0137 9.38867C96.7754 8.52148 97.7129 7.84766 98.8262 7.36719C99.9395 6.875 101.217 6.62891 102.658 6.62891C104.1 6.62891 105.383 6.875 106.508 7.36719C107.633 7.84766 108.576 8.52148 109.338 9.38867C110.111 10.2559 110.697 11.2812 111.096 12.4648C111.494 13.6367 111.693 14.9199 111.693 16.3145V16.6836C111.693 18.0664 111.494 19.3496 111.096 20.5332C110.697 21.7051 110.111 22.7305 109.338 23.6094C108.576 24.4766 107.639 25.1504 106.525 25.6309C105.412 26.1113 104.135 26.3516 102.693 26.3516C101.252 26.3516 99.9688 26.1113 98.8438 25.6309C97.7305 25.1504 96.7871 24.4766 96.0137 23.6094C95.252 22.7305 94.6719 21.7051 94.2734 20.5332C93.875 19.3496 93.6758 18.0664 93.6758 16.6836ZM98.7383 16.3145V16.6836C98.7383 17.4805 98.8086 18.2246 98.9492 18.916C99.0898 19.6074 99.3125 20.2168 99.6172 20.7441C99.9336 21.2598 100.344 21.6641 100.848 21.957C101.352 22.25 101.967 22.3965 102.693 22.3965C103.396 22.3965 104 22.25 104.504 21.957C105.008 21.6641 105.412 21.2598 105.717 20.7441C106.021 20.2168 106.244 19.6074 106.385 18.916C106.537 18.2246 106.613 17.4805 106.613 16.6836V16.3145C106.613 15.541 106.537 14.8145 106.385 14.1348C106.244 13.4434 106.016 12.834 105.699 12.3066C105.395 11.7676 104.99 11.3457 104.486 11.041C103.982 10.7363 103.373 10.584 102.658 10.584C101.943 10.584 101.334 10.7363 100.83 11.041C100.338 11.3457 99.9336 11.7676 99.6172 12.3066C99.3125 12.834 99.0898 13.4434 98.9492 14.1348C98.8086 14.8145 98.7383 15.541 98.7383 16.3145ZM119.762 11.041V26H114.699V6.98047H119.445L119.762 11.041ZM119.023 15.8223H117.652C117.652 14.416 117.834 13.1504 118.197 12.0254C118.561 10.8887 119.07 9.92188 119.727 9.125C120.383 8.31641 121.162 7.70117 122.064 7.2793C122.979 6.8457 123.998 6.62891 125.123 6.62891C126.014 6.62891 126.828 6.75781 127.566 7.01562C128.305 7.27344 128.938 7.68359 129.465 8.24609C130.004 8.80859 130.414 9.55273 130.695 10.4785C130.988 11.4043 131.135 12.5352 131.135 13.8711V26H126.037V13.8535C126.037 13.0098 125.92 12.3535 125.686 11.8848C125.451 11.416 125.105 11.0879 124.648 10.9004C124.203 10.7012 123.652 10.6016 122.996 10.6016C122.316 10.6016 121.725 10.7363 121.221 11.0059C120.729 11.2754 120.318 11.6504 119.99 12.1309C119.674 12.5996 119.434 13.1504 119.27 13.7832C119.105 14.416 119.023 15.0957 119.023 15.8223Z" fill="black"/>
</svg>
