<svg width="146" height="41" viewBox="0 0 146 41" fill="none" xmlns="http://www.w3.org/2000/svg">
<path d="M37.0791 8.4435C36.4894 7.63415 35.8418 6.86874 35.1411 6.15327C35.0913 6.10313 35.0441 6.05331 34.9943 6.00317C32.7797 3.78644 30.0868 2.10662 27.1221 1.09277V27.9832C27.1221 28.8846 26.9446 29.7772 26.5997 30.61C26.2547 31.4428 25.7492 32.1995 25.1118 32.8368C24.4744 33.4743 23.7177 33.9799 22.8849 34.3248C22.0521 34.6696 21.1596 34.8472 20.2582 34.8472H16.1665V40.5404C17.5907 40.8442 19.0429 40.9975 20.4992 40.9975C24.2806 40.9978 27.9885 39.9523 31.2127 37.9765C34.4369 36.0007 37.0516 33.1712 38.7677 29.8017C40.4837 26.4321 41.2342 22.6535 40.9363 18.8838C40.6383 15.1141 39.3033 11.5003 37.0791 8.44221V8.4435Z" fill="white"/>
<path d="M20.4992 3.40102e-09C16.7179 0.000360084 13.0103 1.0465 9.78653 3.02274C6.56277 4.99898 3.94835 7.82832 2.23243 11.1979C0.516499 14.5674 -0.234089 18.3459 0.0636677 22.1155C0.361423 25.885 1.69593 29.4988 3.91959 32.5572C4.51062 33.3662 5.15926 34.1316 5.86047 34.8471C5.90867 34.8956 5.95589 34.9441 6.00409 34.9959C8.21821 37.2124 10.9103 38.8925 13.874 39.9076V13.0145C13.8748 11.1942 14.5984 9.44866 15.8859 8.16176C17.1734 6.87487 18.9192 6.15192 20.7395 6.15192H24.8312V0.458693C23.4074 0.153724 21.9553 -2.64036e-05 20.4992 3.40102e-09Z" fill="white"/>
<path d="M66.65 13.2988C66.5833 14.0654 66.5333 14.8154 66.5 15.5488C66.4833 16.2654 66.475 16.8154 66.475 17.1988C66.475 17.5821 66.4833 17.9404 66.5 18.2738C66.5167 18.6071 66.5333 18.8988 66.55 19.1488H65.975C65.7417 17.8154 65.4583 16.7738 65.125 16.0238C64.7917 15.2571 64.35 14.7071 63.8 14.3738C63.2667 14.0404 62.5583 13.8738 61.675 13.8738H60.875V28.1238C60.875 28.8071 60.9333 29.3154 61.05 29.6488C61.1833 29.9821 61.4417 30.2071 61.825 30.3238C62.2083 30.4238 62.7667 30.4821 63.5 30.4988V30.9988C63 30.9654 62.35 30.9488 61.55 30.9488C60.75 30.9321 59.9333 30.9238 59.1 30.9238C58.2333 30.9238 57.4167 30.9321 56.65 30.9488C55.9 30.9488 55.2917 30.9654 54.825 30.9988V30.4988C55.5417 30.4821 56.0917 30.4238 56.475 30.3238C56.8583 30.2071 57.1167 29.9821 57.25 29.6488C57.3833 29.3154 57.45 28.8071 57.45 28.1238V13.8738H56.625C55.7583 13.8738 55.05 14.0404 54.5 14.3738C53.95 14.7071 53.5083 15.2571 53.175 16.0238C52.8417 16.7738 52.5667 17.8154 52.35 19.1488H51.775C51.8083 18.8988 51.825 18.6071 51.825 18.2738C51.8417 17.9404 51.85 17.5821 51.85 17.1988C51.85 16.8154 51.8333 16.2654 51.8 15.5488C51.7833 14.8154 51.7417 14.0654 51.675 13.2988C52.4083 13.3154 53.2167 13.3321 54.1 13.3488C54.9833 13.3654 55.8667 13.3738 56.75 13.3738C57.6333 13.3738 58.4417 13.3738 59.175 13.3738C59.8917 13.3738 60.6917 13.3738 61.575 13.3738C62.4583 13.3738 63.3417 13.3654 64.225 13.3488C65.1083 13.3321 65.9167 13.3154 66.65 13.2988ZM76.2586 17.7238C76.7753 17.7238 77.2003 17.8321 77.5336 18.0488C77.8836 18.2654 78.1419 18.5404 78.3086 18.8738C78.4753 19.2071 78.5586 19.5571 78.5586 19.9238C78.5586 20.4738 78.3919 20.9321 78.0586 21.2988C77.7419 21.6654 77.3169 21.8488 76.7836 21.8488C76.2836 21.8488 75.8753 21.7154 75.5586 21.4488C75.2419 21.1821 75.0836 20.8154 75.0836 20.3488C75.0836 19.9321 75.1836 19.5821 75.3836 19.2988C75.6003 19.0154 75.8419 18.7904 76.1086 18.6238C75.9253 18.5238 75.7169 18.4904 75.4836 18.5238C75.0836 18.5571 74.7169 18.6988 74.3836 18.9488C74.0503 19.1988 73.7669 19.5071 73.5336 19.8738C73.3003 20.2404 73.1169 20.6321 72.9836 21.0488C72.8669 21.4654 72.8086 21.8654 72.8086 22.2488V28.4238C72.8086 29.2404 73.0169 29.7904 73.4336 30.0738C73.8503 30.3404 74.4586 30.4738 75.2586 30.4738V30.9988C74.8753 30.9821 74.3169 30.9654 73.5836 30.9488C72.8669 30.9154 72.1169 30.8988 71.3336 30.8988C70.6836 30.8988 70.0336 30.9154 69.3836 30.9488C68.7503 30.9654 68.2753 30.9821 67.9586 30.9988V30.4738C68.5753 30.4738 69.0086 30.3488 69.2586 30.0988C69.5253 29.8488 69.6586 29.3738 69.6586 28.6738V20.7988C69.6586 20.0488 69.5336 19.4988 69.2836 19.1488C69.0503 18.7821 68.6086 18.5988 67.9586 18.5988V18.0738C68.4919 18.1238 69.0086 18.1488 69.5086 18.1488C70.1253 18.1488 70.7086 18.1238 71.2586 18.0738C71.8253 18.0071 72.3419 17.9154 72.8086 17.7988V20.3988C73.0086 19.9321 73.2669 19.4988 73.5836 19.0988C73.9169 18.6988 74.3086 18.3738 74.7586 18.1238C75.2253 17.8571 75.7253 17.7238 76.2586 17.7238ZM82.9082 31.1738C82.1915 31.1738 81.5832 31.0404 81.0832 30.7738C80.5832 30.4904 80.2082 30.1154 79.9582 29.6488C79.7082 29.1654 79.5832 28.6321 79.5832 28.0488C79.5832 27.3321 79.7499 26.7488 80.0832 26.2988C80.4165 25.8321 80.8415 25.4654 81.3582 25.1988C81.8915 24.9154 82.4499 24.6821 83.0332 24.4988C83.6165 24.2988 84.1665 24.1154 84.6832 23.9488C85.1999 23.7654 85.6249 23.5571 85.9582 23.3238C86.2915 23.0904 86.4582 22.7821 86.4582 22.3988V20.5738C86.4582 20.0404 86.3749 19.6071 86.2082 19.2738C86.0582 18.9238 85.8249 18.6654 85.5082 18.4988C85.2082 18.3154 84.8249 18.2238 84.3582 18.2238C84.0082 18.2238 83.6415 18.2738 83.2582 18.3738C82.8749 18.4738 82.5582 18.6654 82.3082 18.9488C82.7415 19.0654 83.0749 19.2821 83.3082 19.5988C83.5582 19.9154 83.6832 20.2988 83.6832 20.7488C83.6832 21.2654 83.5082 21.6738 83.1582 21.9738C82.8249 22.2571 82.3999 22.3988 81.8832 22.3988C81.3332 22.3988 80.9165 22.2238 80.6332 21.8738C80.3499 21.5238 80.2082 21.1154 80.2082 20.6488C80.2082 20.1821 80.3249 19.7988 80.5582 19.4988C80.7915 19.1821 81.1165 18.8988 81.5332 18.6488C81.9499 18.3654 82.4832 18.1404 83.1332 17.9738C83.7832 17.8071 84.4915 17.7238 85.2582 17.7238C85.9915 17.7238 86.6415 17.8071 87.2082 17.9738C87.7749 18.1238 88.2582 18.3988 88.6582 18.7988C89.0582 19.1821 89.3165 19.6571 89.4332 20.2238C89.5499 20.7904 89.6082 21.4821 89.6082 22.2988V29.1488C89.6082 29.5654 89.6582 29.8654 89.7582 30.0488C89.8582 30.2154 90.0165 30.2988 90.2332 30.2988C90.3999 30.2988 90.5582 30.2571 90.7082 30.1738C90.8582 30.0904 91.0249 29.9738 91.2082 29.8238L91.4832 30.2488C91.1165 30.5321 90.7332 30.7571 90.3332 30.9238C89.9332 31.0904 89.4499 31.1738 88.8832 31.1738C88.2999 31.1738 87.8332 31.0904 87.4832 30.9238C87.1499 30.7571 86.8999 30.5154 86.7332 30.1988C86.5832 29.8821 86.4999 29.5071 86.4832 29.0738C86.0832 29.7404 85.5915 30.2571 85.0082 30.6238C84.4249 30.9904 83.7249 31.1738 82.9082 31.1738ZM84.4082 29.7738C84.8082 29.7738 85.1749 29.6654 85.5082 29.4488C85.8582 29.2321 86.1749 28.9071 86.4582 28.4738V23.4238C86.2915 23.6738 86.0499 23.8988 85.7332 24.0988C85.4332 24.2988 85.1082 24.4988 84.7582 24.6988C84.4082 24.8988 84.0749 25.1321 83.7582 25.3988C83.4582 25.6488 83.1999 25.9654 82.9832 26.3488C82.7832 26.7154 82.6832 27.1904 82.6832 27.7738C82.6832 28.4238 82.8415 28.9238 83.1582 29.2738C83.4749 29.6071 83.8915 29.7738 84.4082 29.7738ZM103.856 18.0738V18.5988C103.54 18.6654 103.24 18.8404 102.956 19.1238C102.69 19.4071 102.431 19.9071 102.181 20.6238L98.3564 31.0738C98.1564 31.0571 97.9564 31.0488 97.7564 31.0488C97.5564 31.0488 97.3481 31.0571 97.1314 31.0738L92.6314 19.9988C92.3814 19.3654 92.1231 18.9738 91.8564 18.8238C91.5898 18.6738 91.3648 18.5988 91.1814 18.5988V18.0738C91.6481 18.1071 92.1314 18.1404 92.6314 18.1738C93.1314 18.1904 93.6814 18.1988 94.2814 18.1988C94.7981 18.1988 95.3398 18.1904 95.9064 18.1738C96.4898 18.1404 97.0314 18.1071 97.5314 18.0738V18.5988C97.1648 18.5988 96.8314 18.6238 96.5314 18.6738C96.2481 18.7238 96.0564 18.8571 95.9564 19.0738C95.8564 19.2738 95.8981 19.6321 96.0814 20.1488L99.0814 27.9238L98.8564 28.1988L101.131 22.0238C101.415 21.2404 101.531 20.6071 101.481 20.1238C101.431 19.6404 101.248 19.2738 100.931 19.0238C100.631 18.7738 100.198 18.6321 99.6314 18.5988V18.0738C99.9148 18.0904 100.181 18.1071 100.431 18.1238C100.698 18.1404 100.956 18.1571 101.206 18.1738C101.473 18.1738 101.723 18.1738 101.956 18.1738C102.306 18.1738 102.648 18.1654 102.981 18.1488C103.331 18.1321 103.623 18.1071 103.856 18.0738ZM110.513 17.7238C111.98 17.7238 113.13 18.1654 113.963 19.0488C114.797 19.9321 115.213 21.3404 115.213 23.2738H106.788L106.763 22.7988H112.313C112.347 21.9821 112.297 21.2321 112.163 20.5488C112.03 19.8488 111.813 19.2904 111.513 18.8738C111.23 18.4571 110.855 18.2488 110.388 18.2488C109.755 18.2488 109.205 18.6238 108.738 19.3738C108.272 20.1071 107.98 21.3154 107.863 22.9988L107.963 23.1488C107.93 23.3654 107.905 23.5988 107.888 23.8488C107.888 24.0988 107.888 24.3488 107.888 24.5988C107.888 25.7488 108.055 26.6988 108.388 27.4488C108.722 28.1988 109.155 28.7488 109.688 29.0988C110.222 29.4488 110.772 29.6238 111.338 29.6238C111.722 29.6238 112.113 29.5654 112.513 29.4488C112.913 29.3321 113.305 29.1154 113.688 28.7988C114.072 28.4821 114.422 28.0321 114.738 27.4488L115.213 27.6488C115.03 28.2321 114.722 28.8154 114.288 29.3988C113.872 29.9654 113.33 30.4321 112.663 30.7988C111.997 31.1654 111.213 31.3488 110.313 31.3488C109.18 31.3488 108.18 31.0988 107.313 30.5988C106.447 30.0988 105.772 29.3571 105.288 28.3738C104.805 27.3738 104.563 26.1571 104.563 24.7238C104.563 23.2071 104.813 21.9321 105.313 20.8988C105.83 19.8654 106.538 19.0821 107.438 18.5488C108.338 17.9988 109.363 17.7238 110.513 17.7238ZM121.536 11.4238V28.6738C121.536 29.3738 121.661 29.8488 121.911 30.0988C122.177 30.3488 122.619 30.4738 123.236 30.4738V30.9988C122.936 30.9821 122.477 30.9654 121.861 30.9488C121.261 30.9154 120.644 30.8988 120.011 30.8988C119.394 30.8988 118.761 30.9154 118.111 30.9488C117.477 30.9654 117.002 30.9821 116.686 30.9988V30.4738C117.302 30.4738 117.736 30.3488 117.986 30.0988C118.252 29.8488 118.386 29.3738 118.386 28.6738V14.4238C118.386 13.6738 118.269 13.1238 118.036 12.7738C117.802 12.4071 117.352 12.2238 116.686 12.2238V11.6988C117.219 11.7488 117.736 11.7738 118.236 11.7738C118.869 11.7738 119.461 11.7488 120.011 11.6988C120.561 11.6321 121.069 11.5404 121.536 11.4238ZM129.202 11.4238V28.6738C129.202 29.3738 129.327 29.8488 129.577 30.0988C129.843 30.3488 130.285 30.4738 130.902 30.4738V30.9988C130.602 30.9821 130.143 30.9654 129.527 30.9488C128.927 30.9154 128.31 30.8988 127.677 30.8988C127.06 30.8988 126.427 30.9154 125.777 30.9488C125.143 30.9654 124.668 30.9821 124.352 30.9988V30.4738C124.968 30.4738 125.402 30.3488 125.652 30.0988C125.918 29.8488 126.052 29.3738 126.052 28.6738V14.4238C126.052 13.6738 125.935 13.1238 125.702 12.7738C125.468 12.4071 125.018 12.2238 124.352 12.2238V11.6988C124.885 11.7488 125.402 11.7738 125.902 11.7738C126.535 11.7738 127.127 11.7488 127.677 11.6988C128.227 11.6321 128.735 11.5404 129.202 11.4238ZM138.176 17.7238C139.326 17.7238 140.342 17.9571 141.226 18.4238C142.126 18.8738 142.834 19.5988 143.351 20.5988C143.884 21.5988 144.151 22.9154 144.151 24.5488C144.151 26.1821 143.884 27.4988 143.351 28.4988C142.834 29.4988 142.126 30.2238 141.226 30.6738C140.342 31.1238 139.326 31.3488 138.176 31.3488C137.026 31.3488 136.001 31.1238 135.101 30.6738C134.201 30.2238 133.492 29.4988 132.976 28.4988C132.459 27.4988 132.201 26.1821 132.201 24.5488C132.201 22.9154 132.459 21.5988 132.976 20.5988C133.492 19.5988 134.201 18.8738 135.101 18.4238C136.001 17.9571 137.026 17.7238 138.176 17.7238ZM138.176 18.2238C137.392 18.2238 136.751 18.7238 136.251 19.7238C135.767 20.7071 135.526 22.3154 135.526 24.5488C135.526 26.7821 135.767 28.3904 136.251 29.3738C136.751 30.3571 137.392 30.8488 138.176 30.8488C138.942 30.8488 139.576 30.3571 140.076 29.3738C140.576 28.3904 140.826 26.7821 140.826 24.5488C140.826 22.3154 140.576 20.7071 140.076 19.7238C139.576 18.7238 138.942 18.2238 138.176 18.2238Z" fill="white"/>
</svg>
