<svg width="8" height="8" viewBox="0 0 8 8" fill="none" xmlns="http://www.w3.org/2000/svg">
<path fill-rule="evenodd" clip-rule="evenodd" d="M7.20375 0H2.75113C2.53546 0 2.39821 0.177141 2.39821 0.39267V0.403866C2.39821 0.623793 2.53066 0.799735 2.75073 0.799735H6.17142C6.34987 0.799735 6.4387 1.01726 6.31266 1.14282L0.115887 7.32557C-0.0385622 7.47952 -0.0385622 7.73024 0.115487 7.88419V7.88459C0.269936 8.03854 0.520016 8.03854 0.673665 7.88419L6.86004 1.68624C6.98608 1.56028 7.19975 1.64945 7.19975 1.82739V5.20827C7.19975 5.4258 7.3802 5.59815 7.59827 5.59815H7.60948C7.82755 5.59815 8 5.4258 8 5.20827V0.804134C8 0.36228 7.64589 0 7.20375 0Z" fill="#7D00EB"/>
</svg>
