<svg width="17" height="24" viewBox="0 0 17 24" fill="none" xmlns="http://www.w3.org/2000/svg">
<path fill-rule="evenodd" clip-rule="evenodd" d="M7.55508 0.963794L0.864577 7.78547C0.54051 8.11593 0.60046 8.5976 0.924312 8.9278L0.941136 8.94493C1.2716 9.28187 1.73498 9.34853 2.06566 9.01134L7.2056 3.77063C7.47375 3.49723 7.93405 3.69441 7.93333 4.07987L7.91228 23.0461C7.9115 23.5186 8.28824 23.9027 8.75103 23.9025L8.75162 23.9031C9.21507 23.9024 9.59083 23.5193 9.58979 23.0474L9.5724 4.07381C9.57253 3.68773 10.0275 3.49699 10.2949 3.76961L15.375 8.94934C15.7019 9.2826 16.232 9.2702 16.5597 8.93607L16.5765 8.91893C16.9042 8.5848 16.9044 8.05653 16.5775 7.72327L9.95986 0.975868C9.29588 0.29892 8.21946 0.286408 7.55508 0.963794Z" fill="#7D00EB"/>
</svg>
