<svg width="99" height="96" viewBox="0 0 99 96" fill="none" xmlns="http://www.w3.org/2000/svg">
<path d="M36.2598 39.0293H40.4849V57.0384H36.2598V39.0293Z" fill="#6D2DDD"/>
<path d="M42.2449 39.0293H46.4701V50.3291H42.2449V39.0293Z" fill="#6D2DDD"/>
<path d="M48.2308 39.0293H52.4559V57.0384H48.2308V39.0293Z" fill="#6D2DDD"/>
<path d="M54.2166 43.267V39.0295L62.6669 39.0295V43.267H54.2166Z" fill="#6D2DDD"/>
<path d="M38.3949 3.1538L38.8121 3.06738C39.0939 3.76414 39.847 4.57971 41.0012 5.16304C41.5593 5.47091 42.0849 5.65455 42.5888 5.73557L42.6159 6.09204C41.6785 6.40531 40.8332 7.17768 40.4214 8.13909C40.2263 8.636 40.1342 9.1005 40.1559 9.565L39.8525 9.63522C39.5328 8.80344 38.6983 8.02027 37.6905 7.62598C37.1703 7.45854 36.6719 7.40453 36.1842 7.46394L36.0596 7.12367C36.9048 6.61596 37.7772 5.47091 38.1294 4.47169C38.3245 3.97478 38.4112 3.53729 38.3949 3.1538Z" fill="#7D00EB"/>
<path d="M21.7767 8.37749L20.396 9.34818C20.396 9.34818 22.1378 11.7433 23.9009 14.1278C25.6534 16.5123 27.4165 18.8863 27.4165 18.8863L28.468 18.1477C28.468 18.1477 26.8005 15.6999 25.1224 13.2626C23.4442 10.8253 21.7767 8.37749 21.7767 8.37749ZM16.3705 12.6084L15.181 13.7163L18.516 17.1348C19.7268 18.3693 19.8543 19.6671 18.8984 20.6694C18.0168 21.6401 17.0291 21.6084 15.9882 20.7327L11.8459 17.2403L10.8263 18.4853L15.2553 21.9777C16.806 23.2016 18.3992 23.1278 19.5781 21.7878C20.4278 20.891 20.5871 19.8675 20.2898 18.939L20.3322 18.8968L21.3412 19.7937L22.1909 19.0023C22.1909 19.0023 20.7358 17.3986 19.2701 15.8054C17.8256 14.2227 16.3705 12.6084 16.3705 12.6084ZM7.69307 22.8851L6.86462 24.2356L13.3223 28.0023L12.3451 29.7749L13.3966 30.3236L14.3525 28.5932L15.6483 29.3529C16.3812 29.796 16.5936 30.408 16.2325 31.041C16.105 31.2626 15.9457 31.4842 15.797 31.6424L16.8591 32.2016C17.0397 31.9906 17.199 31.7902 17.3796 31.4525C18.0381 30.313 17.5814 29.068 16.3174 28.2661L15.0429 27.4748L15.8289 26.272L14.8411 25.6073L14.0339 26.8523L7.69307 22.8851ZM3.96504 29.9648L3.37026 31.4525C3.37026 31.4525 6.30169 32.5815 9.23313 33.6999C12.1752 34.8183 15.096 35.9367 15.096 35.9367L15.5527 34.8288C15.5527 34.8288 12.6531 33.6049 9.76419 32.3916C6.87523 31.1887 3.96504 29.9648 3.96504 29.9648ZM9.16941 43.2907L3.95442 42.5311C2.57367 42.3412 1.80894 41.5498 2.09571 39.9039C2.44621 38.279 3.45522 37.8464 4.79349 38.163L9.92351 39.4185L10.2846 38.1313L4.96343 36.6436C3.05162 36.1161 1.36286 37.34 0.85304 39.6612C0.449437 42.0035 1.54342 43.7761 3.51895 43.9977L9.01009 44.6096L9.16941 43.2907ZM0.00334475 52.1114C0.162662 54.1899 1.4372 55.7409 3.041 55.7726L2.84981 54.2743C1.92577 54.1161 1.35224 53.272 1.27789 52.027C1.19292 50.2544 2.31876 49.3259 3.95442 49.3259L4.44299 55.7198L5.14399 55.6143C7.52313 55.2767 9.15878 53.8101 8.9676 51.5416C8.89325 49.0727 6.92834 47.8593 4.41113 47.7749C1.87267 47.7011 -0.0922456 49.1993 0.00334475 52.1114ZM5.15461 49.3365C6.51412 49.3892 7.61872 50.0645 7.68244 51.626C7.8099 53.1032 6.81151 53.905 5.43076 54.0633L5.15461 49.3365ZM1.37347 60.3939L1.75584 61.9766L6.39728 60.7315C8.07543 60.2778 9.27562 60.7948 9.68984 62.1032C10.1147 63.3587 9.60487 64.1817 8.33033 64.6671L3.25342 66.5662L3.85883 68.0645L9.0632 65.9121C10.9113 65.1524 11.6335 63.728 11.0069 62.0504C10.6351 60.8792 9.80667 60.2673 8.84015 60.0774L8.81891 59.993L10.0934 59.5498L9.82791 58.4314C9.82791 58.4314 7.70369 58.9168 5.6007 59.4127C3.48709 59.9086 1.37347 60.3939 1.37347 60.3939ZM7.65058 75.6295C9.07382 77.7503 10.8475 78.0668 12.4195 77.1067L11.5167 75.9039C10.497 76.4631 9.46679 76.136 8.69145 74.9543C7.67182 73.2661 8.52152 71.9261 10.1147 71.0504C11.6654 70.1852 13.2585 70.0692 14.1507 71.5147C14.8199 72.5275 14.6712 73.551 13.779 74.279L14.6181 75.4291C15.9563 74.279 16.4343 72.6225 15.2341 70.8394C14.002 68.7819 11.8247 68.5076 9.40307 69.7421C6.97083 70.9871 6.13176 73.0973 7.65058 75.6295ZM15.2553 84.8617C16.7954 86.2755 18.8028 86.5709 20.003 85.5158L18.8347 84.5346C18.0381 85.0516 17.0503 84.8089 16.1263 83.9543C14.8623 82.6882 15.0535 81.2638 16.2537 80.1454L20.9801 84.524L21.4262 83.9754C22.9344 82.1184 23.1362 79.9343 21.4475 78.415C19.695 76.6424 17.422 77.075 15.5315 78.721C13.609 80.3775 13.2054 82.7937 15.2553 84.8617ZM17.1459 79.354C18.1761 78.4678 19.4507 78.2145 20.5553 79.3224C21.6705 80.3247 21.4793 81.5909 20.5765 82.6354L17.1459 79.354ZM21.936 90.0211L23.2955 90.8968L25.5366 87.3517C26.62 85.6424 27.852 85.0516 29.2221 85.8218L29.7957 86.1383L30.433 84.9461L29.8063 84.6084C28.9354 84.1125 27.937 84.1969 27.1404 84.83L27.0767 84.7984L27.7564 83.5111L26.7899 82.8781C26.7899 82.8781 25.5791 84.6717 24.3683 86.4443C23.1468 88.2274 21.936 90.0211 21.936 90.0211ZM32.8015 95.6764C34.8301 96.3622 36.7632 95.9613 37.188 94.442C37.6022 92.9965 36.9437 92.1524 35.4461 91.2872L34.2353 90.6014C33.3963 90.1161 33.0139 89.5569 33.2688 88.9238C33.5874 88.143 34.4053 88.0059 35.3612 88.3646C36.3277 88.7022 36.9331 89.4197 36.6463 90.4748L37.9634 90.8652C38.4413 89.2087 37.4854 87.8159 35.7648 87.2462C34.0973 86.592 32.6209 87.0668 32.0049 88.3857C31.4844 89.5463 31.8987 90.6542 33.1626 91.4666L34.7451 92.3845C35.6161 92.9015 35.871 93.4607 35.701 94.0094C35.4568 94.8007 34.5327 94.9168 33.2582 94.4842C31.9624 93.9988 31.2826 93.102 31.7394 92.0258L30.348 91.4138C29.5833 93.1758 30.6348 94.8428 32.8015 95.6764ZM72.8857 92.0258L74.2877 91.2556C74.2877 91.2556 73.1087 89.1876 71.9085 87.1196C70.7402 85.0516 69.5506 82.9941 69.5506 82.9941L69.6037 82.9519C69.6037 82.9519 71.4093 84.0809 73.2787 85.1254C75.2117 86.1172 77.1979 87.0246 77.1979 87.0246L77.3678 86.9191C77.3678 86.9191 77.1554 84.7667 76.8792 82.646C76.4862 80.5569 76.0402 78.4994 76.0402 78.4994L76.0932 78.4572C76.0932 78.4572 77.6546 80.2403 79.2265 82.0234C80.7878 83.8066 82.3491 85.6002 82.3491 85.6002L83.5387 84.5346C83.5387 84.5346 81.51 82.3611 79.492 80.1981C77.4634 78.0352 75.4454 75.8722 75.4454 75.8722L74.3408 76.8429L75.8171 84.8406L75.764 84.8933L68.6584 80.8523L67.3414 81.5697C67.3414 81.5697 68.7328 84.1864 70.1135 86.7925C71.4943 89.4091 72.8857 92.0258 72.8857 92.0258ZM89.6034 78.0563C90.8248 76.3576 90.8885 74.3529 89.6565 73.2767L88.8493 74.5639C89.4441 75.2814 89.3378 76.2837 88.5837 77.3072C87.4791 78.6999 86.024 78.6788 84.7708 77.6237L88.5625 72.4537L87.9571 72.0739C85.9285 70.8183 83.7193 70.871 82.4128 72.7175C80.8515 74.6589 81.5525 76.8429 83.4325 78.5205C85.323 80.2087 87.7978 80.3247 89.6034 78.0563ZM83.8679 76.8535C82.8589 75.9461 82.4553 74.7327 83.4325 73.4771C84.2928 72.2849 85.5992 72.3165 86.7357 73.0762L83.8679 76.8535ZM95.6468 67.5791C96.4434 65.6272 95.9867 63.6542 94.5634 62.9261L94.0536 64.3505C94.8396 64.9203 94.967 65.9226 94.4891 67.0832C93.7669 68.7081 92.3436 69.0352 90.8673 68.3177L93.2677 62.3775L92.6198 62.1665C90.315 61.4279 88.1908 62.0082 87.3729 64.1184C86.3321 66.3763 87.5641 68.3283 89.7733 69.4994C92.0356 70.6917 94.4466 70.2063 95.6468 67.5791ZM89.7946 67.7902C88.605 67.1571 87.904 66.0387 88.5519 64.6143C89.0935 63.2427 90.3681 62.9578 91.6532 63.422L89.7946 67.7902ZM98.8969 56.3529C98.9924 55.7409 99.0137 55.2134 98.9925 54.8968L97.7816 54.7491L97.7498 54.939C97.771 55.129 97.7923 55.4138 97.7179 55.8675C97.5692 56.7011 97.1444 57.0281 96.3265 56.8804L91.2284 55.9519L91.5577 53.9473L90.3575 53.789L90.0494 55.7409L87.7659 55.3189L87.734 55.4666L87.9677 56.6166L89.7946 57.007L89.4865 58.3365L90.6549 58.6319L90.9629 57.2814L96.146 58.3998C97.5586 58.7268 98.5464 58.2626 98.8969 56.3529ZM88.3926 18.2532L87.3092 16.9555C87.3092 16.9555 85.3231 18.6753 83.3157 20.374C81.3189 22.0832 79.3221 23.7925 79.3221 23.7925L77.0704 21.408L76.1252 22.3681C76.1252 22.3681 77.4528 23.7397 78.7061 25.1641C79.8957 26.6624 81.0003 28.2028 81.0003 28.2028L82.1261 27.4431L80.1824 24.8265C80.1824 24.8265 82.2323 23.17 84.2928 21.524C86.3533 19.8781 88.3926 18.2532 88.3926 18.2532ZM80.2356 10.0762C78.5468 8.82064 76.5288 8.73623 75.4348 9.91794L76.7093 10.7726C77.4422 10.1923 78.4512 10.3083 79.4602 11.0785C80.8516 12.197 80.8091 13.6424 79.7364 14.8769L74.5745 11.0152L74.1921 11.5956C72.8751 13.6108 72.907 15.8054 74.7444 17.1243C76.6668 18.7175 78.876 18.0528 80.5967 16.2169C82.3385 14.3599 82.4872 11.9226 80.2356 10.0762ZM78.9291 15.7526C78.0051 16.7444 76.7518 17.1137 75.5304 16.1325C74.3408 15.2462 74.3833 13.9695 75.1693 12.8406L78.9291 15.7526ZM69.7843 3.88277C67.4052 2.92263 65.7589 3.62955 64.9836 5.28605L66.4174 5.82415C66.9485 4.79016 67.9894 4.48418 69.2958 5.03283C71.0907 5.85581 71.1332 7.44901 70.3048 9.06331C69.4976 10.6354 68.2443 11.6061 66.683 10.8886C65.589 10.4244 65.1217 9.50645 65.4509 8.39859L64.102 7.9238C63.6453 9.60141 64.1657 11.2474 66.1731 12.0492C68.3505 13.0938 70.326 12.1125 71.6218 9.75967C72.9494 7.37515 72.4502 5.14889 69.7843 3.88277ZM61.8928 1.33998L60.3103 0.97069L59.3119 5.58148C58.9189 7.29074 57.8249 8.12427 56.5079 7.8816C55.2015 7.70223 54.6598 6.8687 54.8191 5.50762L55.4352 0.158266L53.8207 0L53.3534 5.59203C53.1835 7.56507 54.1606 8.85229 55.9343 9.08441C57.1664 9.29543 58.0798 8.84174 58.6852 8.07151L58.749 8.08207L57.6231 13.1676L58.8021 13.4525C58.8021 13.4525 59.5668 10.4244 60.3421 7.39625C61.1068 4.37867 61.8928 1.33998 61.8928 1.33998Z" fill="#7D00EB"/>
<path d="M54.3115 95.6359L53.9004 95.6733C53.6868 94.9524 53.0461 94.0768 51.9676 93.3719C51.4658 93.0035 50.9692 92.7632 50.4834 92.635L50.4994 92.2773C51.4551 92.0797 52.3627 91.4122 52.8859 90.5098C53.1262 90.0453 53.2704 89.6021 53.3024 89.1428L53.6067 89.1055C53.8203 89.9598 54.5464 90.8249 55.4967 91.3215C55.9879 91.5404 56.4791 91.6525 56.9543 91.6418L57.0397 91.9943C56.1427 92.4001 55.1764 93.4413 54.7172 94.3757C54.4663 94.8456 54.3382 95.2568 54.3115 95.6359Z" fill="#7D00EB"/>
<path d="M95.6303 36.2011L95.7223 36.6095C95.0347 36.9145 94.2389 37.6878 93.6704 38.8696C93.3781 39.4251 93.1994 39.9588 93.1398 40.4762L92.7771 40.5034C92.4414 39.5612 91.651 38.7334 90.6765 38.3304C90.1622 38.1507 89.7074 38.069 89.2418 38.0963L89.166 37.7967C89.9943 37.4591 90.7631 36.6041 91.1313 35.5802C91.2937 35.052 91.337 34.5509 91.2666 34.0662L91.5969 33.9355C92.1274 34.7742 93.2968 35.6238 94.3038 35.956C94.8128 36.1357 95.2567 36.2229 95.6303 36.2011Z" fill="#7D00EB"/>
</svg>
