<svg width="48" height="48" viewBox="0 0 48 48" fill="none" xmlns="http://www.w3.org/2000/svg">
<path fill-rule="evenodd" clip-rule="evenodd" d="M20.6957 16.0982C19.3934 16.1569 18.2646 16.4754 17.3532 17.383C16.4385 18.2953 16.1241 19.4285 16.0652 20.7172C16.0286 21.5216 15.8145 27.5985 16.4354 29.1922C16.8541 30.2674 17.6788 31.094 18.7638 31.5141C19.27 31.711 19.8479 31.8444 20.6957 31.8833C27.7844 32.2041 30.4121 32.0294 31.5201 29.1922C31.7168 28.6872 31.8521 28.1099 31.8895 27.2642C32.2135 20.1574 31.837 18.6169 30.6015 17.383C29.6216 16.4055 28.469 15.7401 20.6957 16.0982ZM20.7609 30.4546C19.9847 30.4197 19.5636 30.2902 19.2826 30.1815C18.5758 29.9067 18.0448 29.3779 17.7718 28.6751C17.2989 27.4642 17.4557 21.7128 17.4979 20.7822C17.5393 19.8706 17.724 19.0376 18.3672 18.3944C19.1632 17.6004 20.1917 17.2113 27.1944 17.5273C28.1082 17.5686 28.9433 17.7528 29.588 18.3944C30.3841 19.1885 30.7789 20.2247 30.4573 27.2006C30.4223 27.9748 30.2925 28.3948 30.1835 28.6751C29.4631 30.5213 27.8057 30.7778 20.7609 30.4546ZM27.2719 19.7524C27.2719 20.278 27.6993 20.7052 28.2271 20.7052C28.7549 20.7052 29.1831 20.278 29.1831 19.7524C29.1831 19.2267 28.7549 18.7995 28.2271 18.7995C27.6993 18.7995 27.2719 19.2267 27.2719 19.7524ZM19.8901 23.9902C19.8901 26.2422 21.7202 28.0677 23.9777 28.0677C26.2353 28.0677 28.0653 26.2422 28.0653 23.9902C28.0653 21.7383 26.2353 19.9135 23.9777 19.9135C21.7202 19.9135 19.8901 21.7383 19.8901 23.9902ZM21.3245 23.9903C21.3245 22.5293 22.5122 21.3438 23.9776 21.3438C25.4431 21.3438 26.6308 22.5293 26.6308 23.9903C26.6308 25.4522 25.4431 26.6377 23.9776 26.6377C22.5122 26.6377 21.3245 25.4522 21.3245 23.9903Z" fill="#7D00EB"/>
</svg>
