<svg width="48" height="48" viewBox="0 0 48 48" fill="none" xmlns="http://www.w3.org/2000/svg">
<path fill-rule="evenodd" clip-rule="evenodd" d="M32.0002 32H28.8002V26.4007C28.8002 24.8647 28.1226 24.0079 26.9074 24.0079C25.585 24.0079 24.8002 24.9007 24.8002 26.4007V32H21.6001V21.5999H24.8002V22.7695C24.8002 22.7695 25.8042 21.0079 28.0666 21.0079C30.3298 21.0079 32.0002 22.3887 32.0002 25.2463C32.0002 28.1031 32.0002 32 32.0002 32ZM17.9536 19.9368C16.8744 19.9368 16 19.0552 16 17.968C16 16.8816 16.8744 16 17.9536 16C19.032 16 19.9064 16.8816 19.9064 17.968C19.9072 19.0552 19.032 19.9368 17.9536 19.9368ZM16 31.9999H20V21.5998H16V31.9999Z" fill="#7D00EB"/>
</svg>
