<svg width="303" height="176" viewBox="0 0 303 176" fill="none" xmlns="http://www.w3.org/2000/svg">
<rect x="0.5" y="0.5" width="302" height="175" stroke="#333333"/>
<g opacity="0.9">
<path d="M111.393 111.521L192.607 85.5677C194.466 84.9679 196 83.1683 196 81.5562V65.3697C196 63.767 194.466 62.9328 192.607 63.5327L111.393 89.4855C109.522 90.0853 108 91.8849 108 93.497V109.684C108 111.286 109.522 112.12 111.393 111.521Z" fill="white"/>
<path d="M148.363 77.6854C147.643 76.5794 147.666 75.0236 147.782 74.2831C147.922 73.3271 148.538 72.4836 148.747 71.5276C148.874 70.9371 148.886 70.281 148.456 69.8405C148.131 69.5031 147.643 68.9033 147.469 68.4252C147.306 67.9847 146.934 67.8535 146.411 67.9285C145.726 68.0316 145.029 67.3568 144.366 67.3943C143.669 67.4317 143.46 68.0316 142.821 68.2565C142.554 68.3503 142.426 68.6877 141.973 68.5096C141.822 68.444 141.346 68.041 141.206 68.1347C140.834 68.3971 141.032 68.7814 140.544 69.3156C139.975 69.9249 138.906 70.1967 138.081 70.5622C137.395 70.8621 136.617 71.0121 135.989 71.3683C133.968 72.5023 133.817 71.2839 135.699 71.0308C136.315 70.9559 136.582 70.3373 137.093 69.9998C137.384 69.803 137.372 69.4281 137.244 69.1001C137.082 68.7064 136.803 68.3221 136.187 67.9379C135.92 67.7785 135.92 67.3568 136.454 67.263C136.791 67.2068 137.174 66.935 137.209 66.6538C137.244 66.4101 136.652 66.3164 136.628 65.8946C136.605 65.5572 137.082 65.4729 137.384 65.2385C137.895 64.8543 138.418 65.2948 138.743 65.023C139.068 64.7512 138.406 64.3013 138.778 64.067C139.87 63.364 140.858 62.3705 142.147 61.9019C142.658 61.7051 143.077 61.9113 143.658 62.0425C144.25 62.1737 145.145 62.005 145.796 62.1081C146.33 62.1924 147.097 61.855 147.48 61.5738C148.282 60.9834 149.56 60.7865 150.338 61.3781C150.594 61.5843 151.036 61.4624 151.384 61.5468C151.872 61.6686 152.315 61.9498 152.825 61.9967C153.324 62.0435 153.824 61.8373 154.324 61.8561C154.788 61.8654 155.207 62.0998 155.66 62.0904C156.101 62.081 156.531 61.6686 156.938 61.8092C157.565 62.0154 158.146 62.3997 158.402 62.8308C158.541 63.0651 159.285 63.0933 159.355 62.8683C159.482 62.5309 159.459 61.828 160.133 61.9967C160.958 62.1935 161.458 62.7933 162.05 63.2807C162.294 63.4775 162.654 63.7493 162.352 64.2461C162.224 64.4617 162.492 64.7053 162.747 64.8272C162.991 64.9397 163.282 64.4335 163.561 64.3867C164.037 64.3117 164.56 64.7241 164.664 65.0521C164.746 65.3052 164.246 65.6895 163.909 65.8488C162.968 66.2987 162.12 66.5893 161.411 67.2162C161.039 67.563 161.295 68.2003 161.469 68.5846C161.702 69.0813 162.619 69.2032 163.154 69.5125C163.874 69.9155 164.478 70.3748 165.245 70.7028C165.663 70.8903 166.314 71.2089 166.639 70.9371C166.953 70.6934 166.268 70.2998 166.175 69.953C166.105 69.6624 165.954 69.2875 166.175 69.0532C166.593 68.6314 166.233 67.9379 166.407 67.413C166.558 66.935 167.162 67.2912 167.569 67.4036C167.859 67.4786 168.243 67.2818 168.498 67.3661C169.23 67.5911 169.428 68.3034 169.939 68.772C170.474 69.2688 170.195 69.878 170.719 70.5341L180.431 67.4224C173.378 61.0396 163.119 57 151.744 57C130.575 57 113.321 70.9277 113.321 87.9953C113.321 88.2859 113.321 88.5764 113.333 88.867L114.448 88.5108C114.716 78.5102 119.293 72.3524 125.265 67.4505C126.915 67.2724 128.007 66.7663 128.902 66.382C129.297 66.2133 129.797 66.3914 130.226 66.4476C130.842 66.5226 131.597 66.4382 132.051 66.785C132.504 67.1412 131.969 67.3286 131.632 67.5255C130.749 68.0222 129.994 68.4627 129.402 68.7252C128.948 68.922 128.147 69.9811 128.658 69.9998C129.425 70.0373 129.738 70.3935 128.658 70.9371C127.682 71.4339 127.148 72.2118 126.59 73.0178C126.381 73.3178 126.427 73.6833 126.427 74.0207C126.427 74.4519 126.532 74.8736 126.59 75.2954C126.671 75.9796 126.474 76.5607 125.765 76.8419C125.045 77.1231 124.382 77.3855 124.196 76.7107C123.825 75.4172 124.231 74.5924 124.766 74.0207C125.242 73.5333 124.266 72.9335 123.778 73.4209C123.581 73.6177 123.093 74.18 122.872 73.8239C122.674 73.5146 121.652 74.808 120.966 75.5016C119.99 76.4857 119.839 77.7323 119.317 78.9226C119.34 79.3256 119.584 79.5412 120.06 79.5881C120.246 79.41 120.444 79.2319 120.629 79.0538C120.525 80.1879 120.234 81.1345 119.979 81.9312C119.502 83.4027 118.131 83.712 117.655 84.7524C117.086 86.0083 117.074 86.955 117.225 87.6298L120.176 86.6925C120.374 86.3457 120.536 85.9896 120.595 85.6147C120.711 84.8836 120.932 84.1994 121.106 83.4871C121.942 84.0776 122.93 83.8432 123.627 84.0213C124.254 84.1807 124.615 84.6587 124.928 85.1742L148.363 77.6854ZM164.223 94.6218C164.223 95.7559 164.502 96.9837 165.687 97.7616C167.139 98.7082 167.104 98.2958 167.569 98.7551C168.022 99.2144 168.185 101.014 168.034 102.42C167.894 103.826 167.534 105.138 166.744 106.403C165.966 107.668 166.361 108.896 166.186 110.012C166 111.127 165.199 110.208 165.268 111.98C165.338 113.751 165.141 113.067 165.315 113.658C165.489 114.239 165.652 114.642 166.279 114.576C166.907 114.501 167.011 113.658 167.453 113.292C167.894 112.917 168.347 112.814 168.603 112.355C168.859 111.896 168.336 110.874 168.789 110.602C169.23 110.34 170.671 109.149 171.101 108.615C171.531 108.09 170.95 107.903 171.287 107.772C171.881 107.525 172.41 107.188 172.844 106.778C173.367 106.263 174.285 106.628 174.924 105.86C175.563 105.091 174.505 105.138 175.051 104.688C175.597 104.247 176.144 104.894 177.898 103.629C179.652 102.364 178.549 102.298 179.397 101.623C180.245 100.948 182.023 100.452 182.836 99.5143C183.661 98.577 183.092 97.4429 183.649 96.4026C184.207 95.3528 186.542 94.5468 186.136 93.3283C185.741 92.1099 183.266 91.8006 182.336 90.854C181.802 90.3104 181.535 89.7386 181.314 89.1669L190.109 86.3645C190.144 86.8987 190.166 87.4423 190.166 87.9953C190.166 105.072 172.901 119 151.743 119C140.008 119 129.482 114.717 122.417 107.997L129.702 105.663C130.458 106.178 131.445 106.656 131.863 107.322C132.282 107.968 132.096 108.746 131.98 109.571C131.91 109.993 132.084 110.312 132.526 110.537C132.897 110.724 133.281 110.49 133.734 110.396C133.92 110.358 133.85 110.715 134.141 110.715C135.14 110.724 135.942 110.124 136.906 110.068C137.719 110.03 138.347 110.377 138.858 110.743C139.102 110.902 139.195 111.371 139.509 111.408C139.869 111.455 140.148 111.042 140.508 110.996C140.752 110.977 141.112 111.118 141.158 111.305C141.205 111.502 140.694 111.783 140.856 111.933C141.124 112.186 141.437 112.402 141.658 112.777C141.821 113.048 142.099 112.655 142.471 112.712C142.831 112.759 143.041 113.012 143.47 113.039C143.924 113.067 144.226 112.645 144.47 112.345C144.737 112.027 145.19 111.999 145.422 111.586C145.55 111.371 145.806 111.277 146.015 111.118C146.166 111.005 146.596 110.761 146.596 110.48C146.584 110.068 146.608 109.871 146.584 109.459C146.549 108.83 146.41 108.296 146.038 107.743C145.69 107.237 145.039 107.087 144.69 106.506C144.539 106.244 144.725 105.822 144.632 105.55C144.551 105.335 143.993 105.184 144.075 104.968C144.214 104.565 143.807 104.406 143.842 104.068C143.877 103.656 143.598 103.215 143.366 103.319C142.785 103.59 142.274 104.256 142.018 104.857C141.914 105.119 141.635 105.457 141.286 105.466C140.798 105.475 140.299 105.091 139.962 104.8C139.276 104.229 138.718 103.601 138.149 102.963L164.223 94.6218Z" fill="#333333"/>
<path d="M122.569 78.9414C121.291 79.4756 120.641 81.1346 121.256 82.3812C121.698 83.2903 122.651 83.2434 123.023 82.4655C123.232 82.025 123.174 81.4533 123.023 80.9097C122.837 80.2348 122.116 80.4879 122.569 78.9414ZM150.082 112.055C150.303 111.867 150.57 112.158 150.733 112.542C150.803 112.702 151.186 112.561 151.326 112.674C151.523 112.823 151.907 113.189 151.651 113.273C151.186 113.414 150.733 113.779 150.512 113.995C150.326 114.183 149.989 113.555 150.082 113.273C150.141 113.086 150.21 112.983 150.164 112.767C150.106 112.486 149.838 112.261 150.082 112.055ZM148.804 114.145C149.106 113.854 149.583 114.314 149.594 114.567C149.606 115.27 148.886 115.532 148.398 115.598C148.456 116.01 147.933 115.945 147.48 115.795C146.771 115.57 147.096 114.792 147.526 114.96C147.654 115.007 148.491 114.454 148.804 114.145ZM113.054 107.144L113.251 92.0444C115.552 91.3414 117.864 90.6291 120.176 89.9168C121.675 89.4294 123.092 89.7949 123.197 91.2477C123.174 92.5692 123.162 93.9001 123.139 95.2217C123.011 96.2433 122.418 96.7682 121.5 96.965C122.325 96.9837 123.011 97.2274 123.046 97.8835V102.111C122.976 103.76 122.14 104.323 120.815 104.726L113.054 107.144Z" fill="#333333"/>
<path d="M116.574 103.414L116.621 99.7866L119.804 98.9149L119.758 102.383L116.574 103.414ZM116.656 97.2747L116.702 93.9474L119.886 92.9258L119.839 96.2437L116.656 97.2747Z" fill="white"/>
<path d="M125.904 103.133L126.101 88.0707L133.863 85.6994L133.828 88.7362L129.483 90.0015L129.435 93.2256L133.48 92.0072L133.456 94.5659L129.402 95.8406L129.355 99.4585L133.84 97.9963L133.805 100.714L125.904 103.133ZM172.391 88.7549L172.6 73.7024L180.361 71.3218L180.315 74.3679L175.969 75.6332L175.923 78.8574L179.978 77.639L179.943 80.1977L175.888 81.4724L175.841 85.0902L180.326 83.6281L180.291 86.3461L172.391 88.7549ZM183.15 70.497L182.952 85.362L190.771 82.897L190.806 80.282L186.461 81.7067L186.624 69.4473L183.15 70.497ZM161.376 77.2172L170.973 74.2554L170.938 77.1047L167.604 78.1826L167.441 90.1608L164.188 91.1824L164.351 79.0917L161.353 80.0571L161.376 77.2172ZM149.479 80.8819L153.022 79.7853L152.953 85.3808L156.159 84.4716L156.229 78.8293L159.796 77.7046L159.598 92.6633L156.066 93.713L156.148 87.5739L152.835 88.5393L152.755 94.7065L149.258 95.85L149.479 80.8819ZM136.872 87.0303C137.023 85.3995 137.918 84.5091 139.219 84.0498C140.672 83.6 142.136 83.1501 143.588 82.7002C145.424 81.9597 146.888 82.7095 146.83 84.1998L146.795 86.946C145.633 87.3115 144.471 87.6677 143.297 88.0332C143.309 87.4802 143.321 86.9366 143.321 86.393C143.344 85.9993 143.286 85.69 142.682 85.9244C142.054 86.1118 141.415 86.2993 140.788 86.4867C140.311 86.6367 140.184 86.9272 140.195 87.1803L140.091 95.5126C140.079 96.0281 140.23 96.2061 140.73 96.0468C141.462 95.7844 142.194 95.5126 142.914 95.2501C143.158 95.1002 143.344 94.8752 143.356 94.491L143.39 92.4383C144.506 92.1103 145.621 91.7916 146.737 91.473C146.713 92.5414 146.702 93.6203 146.69 94.6972C146.83 95.9812 145.772 96.7404 144.39 97.3684C142.751 97.8745 141.125 98.3806 139.487 98.8961C137.813 99.3366 136.733 98.9992 136.733 97.3027L136.872 87.0303Z" fill="#333333"/>
</g>
</svg>
