<svg width="303" height="176" viewBox="0 0 303 176" fill="none" xmlns="http://www.w3.org/2000/svg">
<rect x="0.5" y="0.5" width="302" height="175" stroke="#7D00EB"/>
<path d="M153.106 97V89.256L161.17 75.56H156.978L153.65 81.48L151.314 86.376L149.074 81.448L145.906 75.56H141.426L149.49 89.256V97H153.106ZM167.854 97.32C172.398 97.32 175.47 94.056 175.47 89.224C175.47 84.36 172.398 81.096 167.854 81.096C163.374 81.096 160.302 84.36 160.302 89.224C160.302 94.056 163.374 97.32 167.854 97.32ZM167.886 94.344C165.582 94.344 163.982 92.808 163.982 89.224C163.982 85.608 165.582 84.072 167.886 84.072C170.222 84.072 171.822 85.608 171.822 89.224C171.822 92.808 170.222 94.344 167.886 94.344ZM183.952 97.32C187.056 97.32 188.656 95.208 189.232 92.744V97H192.848V81.416H189.232V90.152C189.232 92.712 188.336 94.408 185.712 94.408C183.312 94.408 182.672 93.096 182.672 91.176V81.416H179.088V92.264C179.088 95.496 180.944 97.32 183.952 97.32Z" fill="#7D00EB"/>
<path fill-rule="evenodd" clip-rule="evenodd" d="M128 87V89H119V98H117V89H108V87H117V78H119V87H128Z" fill="#7D00EB"/>
</svg>
