<svg width="303" height="176" viewBox="0 0 303 176" fill="none" xmlns="http://www.w3.org/2000/svg">
<rect x="0.5" y="0.5" width="302" height="175" stroke="#333333"/>
<g opacity="0.9">
<path d="M223.88 70.1715L223.952 70.0245H211.328C207.608 70.0245 204.44 70.8087 201.824 72.3526C199.208 73.921 197.336 76.0776 196.184 78.8959C195.464 80.6848 195.248 82.3023 195.56 83.7726C195.92 85.3166 196.856 86.3948 198.344 87.081C199.712 87.6937 201.992 87.9878 205.208 87.9878H216.608L217.736 85.145H211.328C208.232 85.145 206.168 84.7284 205.136 83.9197C204.008 83.0375 204.128 81.0034 205.016 78.8468C206.552 75.1219 209.744 72.7937 214.184 72.7937H219.152L218 75.5875H221.792L224 70.1961H223.88V70.1715ZM179.672 80.7829L187.352 73.1613L188.936 80.7829H179.672ZM114.368 80.8074L121.856 73.5044L123.2 80.8074H114.368ZM186.704 70L182.024 70.0245L164.024 87.2281L171.056 70.049H163.352L154.04 77.499L149.24 81.518H149.024L151.28 75.661L148.52 70.0245H140.768L133.736 87.2281L129.656 70.0245H121.16L102.416 87.9633H107.096L111.896 83.2825H123.704L124.64 87.9633H137.192L141.728 76.8618C141.968 76.2982 142.184 75.661 142.4 74.9503C142.424 75.5385 142.568 76.1511 142.856 76.7883L146.84 86.0517H147.512L158.936 76.8373C159.368 76.4942 160.016 75.8571 160.88 74.9503C160.448 75.7835 160.136 76.4207 159.944 76.8618L155.408 87.9633H163.688H172.424L177.152 83.258H189.416L190.4 87.9633H194.72L190.52 70H186.704ZM104.504 83.7481C106.016 82.2777 107.12 80.6603 107.864 78.8713C109.016 76.0776 108.92 73.8965 107.576 72.3281C106.232 70.7842 103.688 70 99.968 70H87.368L86.216 72.8182H94.904C99.344 72.8182 100.616 75.0728 99.08 78.7978C98.192 80.9544 97.424 82.9394 95.576 83.8217C93.896 84.6304 92.144 84.8754 89.048 84.8754H85.04L88.04 77.6215H84.248L80 87.9633H91.424C94.64 87.9633 97.16 87.6692 99.032 87.0565C101.072 86.3703 102.896 85.292 104.504 83.7481Z" fill="#333333"/>
<path d="M190.016 105.877V102.643L192.512 98.3049H191.432L190.376 100.388C190.088 100.952 189.848 101.466 189.632 101.956H189.608C189.368 101.417 189.152 100.976 188.864 100.388L187.808 98.3049H186.728L189.08 102.667V105.877H190.016ZM182.336 99.0891C182.48 99.0401 182.816 98.9911 183.272 98.9911C184.28 98.9911 184.976 99.4322 184.976 100.412C184.976 101.27 184.328 101.858 183.296 101.858H182.312V99.0891H182.336ZM181.376 105.877H182.336V102.594H183.248C184.112 102.618 184.52 103.01 184.736 104.064C184.952 104.995 185.12 105.657 185.24 105.877H186.224C186.08 105.583 185.888 104.848 185.648 103.794C185.48 103.01 185.12 102.471 184.568 102.275V102.25C185.36 101.981 185.96 101.319 185.96 100.314C185.96 99.7263 185.744 99.2116 185.384 98.8685C184.928 98.4519 184.256 98.2559 183.248 98.2559C182.6 98.2559 181.904 98.3049 181.4 98.4029V105.877H181.376ZM174.032 98.3049V102.765C174.032 105.118 175.184 106 176.696 106C178.304 106 179.504 105.044 179.504 102.716V98.3049H178.544V102.79C178.544 104.456 177.848 105.216 176.744 105.216C175.76 105.216 175.016 104.505 175.016 102.79V98.3049H174.032ZM172.712 105.877L170.408 101.981L172.664 98.3049H171.56L170.552 100.069C170.288 100.559 170.096 100.903 169.88 101.344H169.856C169.664 100.952 169.448 100.559 169.184 100.069L168.2 98.3049H167.096L169.28 102.054L167.024 105.877H168.128L169.016 104.211C169.4 103.549 169.616 103.133 169.808 102.716H169.832C170.072 103.157 170.312 103.574 170.696 104.211L171.632 105.877H172.712ZM160.184 98.3049V102.765C160.184 105.118 161.336 106 162.848 106C164.456 106 165.656 105.044 165.656 102.716V98.3049H164.696V102.79C164.696 104.456 164 105.216 162.896 105.216C161.912 105.216 161.168 104.505 161.168 102.79V98.3049H160.184ZM155.192 105.877H159.32V105.069H156.152V98.3294H155.192V105.877ZM151.064 101.515H148.184V99.1136H151.232V98.3049H147.224V105.877H151.4V105.069H148.184V102.348H151.064V101.515ZM139.832 98.3049V105.877H140.792V102.324H144.368V105.877H145.328V98.3049H144.368V101.466H140.792V98.3049H139.832ZM135.56 105.877H136.52V99.1381H138.776V98.3049H133.28V99.1381H135.536V105.877H135.56ZM130.472 101.515H127.592V99.1136H130.64V98.3049H126.632V105.877H130.808V105.069H127.592V102.348H130.472V101.515ZM122.96 105.877L125.6 98.3049H124.568L123.32 102.054C122.984 103.035 122.672 103.99 122.48 104.873H122.456C122.264 103.99 121.976 103.059 121.664 102.054L120.512 98.3294H119.48L121.904 105.902H122.96V105.877ZM117.416 105.877H118.376V98.3049H117.416V105.877ZM112.016 105.877H116.144V105.069H112.976V98.3294H112.016V105.877Z" fill="#333333"/>
</g>
</svg>
