<svg width="303" height="176" viewBox="0 0 303 176" fill="none" xmlns="http://www.w3.org/2000/svg">
<rect x="0.5" y="0.5" width="302" height="175" stroke="#333333"/>
<path d="M96.608 71C87.44 71 80 78.6156 80 88C80 97.3844 87.44 105 96.608 105C105.776 105 113.216 97.3844 113.216 88C113.216 78.6156 105.776 71 96.608 71Z" fill="white"/>
<path d="M98.8398 73.6527C98.8158 73.6527 98.8158 73.6527 98.8158 73.6527C98.7918 73.7018 98.5758 74.0949 98.2398 74.8073C98.1198 75.0775 98.0238 75.2249 97.9758 75.2741C97.9278 75.2741 97.8798 75.2741 97.8558 75.2741C97.8318 75.2495 97.8078 75.2249 97.8078 75.2004C97.8078 75.2004 97.7838 75.1267 97.7358 75.0038C97.3038 73.5053 97.0638 72.67 97.0158 72.5226C96.9438 72.277 96.7998 72.1295 96.6078 72.0804C96.5838 72.0558 96.5838 71.9084 96.6078 71.9084C96.6558 71.8593 98.0718 71.9085 98.3358 71.9821C98.3358 71.9821 98.3358 72.0559 98.3118 72.1541H98.1918C98.1198 72.1541 97.8318 72.2769 97.9278 72.5472L98.3358 73.8001C98.3358 73.8001 98.3358 73.8001 98.3598 73.8001C98.4078 73.7509 98.5518 73.4561 98.8158 72.9402C99.0798 72.4243 99.2478 72.1295 99.2718 72.0804C99.3678 72.0804 99.4398 72.105 99.4638 72.1541C99.4638 72.1541 99.5598 72.5963 99.7278 73.4561C99.8238 73.8983 99.8718 74.144 99.8958 74.2177C99.9198 74.1931 99.9438 74.1931 99.9678 74.1686C99.9678 74.1686 100.16 73.8738 100.472 73.3333C100.592 73.1368 100.664 73.0139 100.664 72.9402C100.688 72.7683 100.544 72.6209 100.4 72.5717L100.448 72.3998C100.52 72.3998 101.504 72.7191 101.648 72.7683C101.648 72.7928 101.648 72.842 101.624 72.8911L101.6 72.9402V72.9648C101.384 72.8911 101.192 72.9648 101 73.2105C100.952 73.2842 100.736 73.6281 100.352 74.2668C100.04 74.7827 99.8478 75.1267 99.7758 75.2495C99.6558 75.446 99.5838 75.5689 99.5598 75.618C99.4638 75.618 99.3918 75.5934 99.3438 75.5443C99.3438 75.5197 99.2478 75.2004 99.1038 74.5616C98.9358 73.9229 98.8638 73.6527 98.8398 73.6527Z" fill="#333333"/>
<path d="M88.8555 75.7655L88.9515 75.7164C89.3115 75.569 89.6715 75.6181 90.0075 75.8638C90.1275 75.9375 90.2955 76.0603 90.5115 76.2323C90.6795 76.3551 90.8235 76.4042 90.9195 76.3551L90.9915 76.3306H91.0155C91.0635 76.4043 91.0875 76.4779 91.0875 76.5025C91.0635 76.5025 91.0155 76.5516 90.8955 76.6008C90.6315 76.7236 90.3915 76.871 90.1755 76.9938C90.1035 77.043 90.0555 77.043 90.0555 77.043L89.9595 76.9938C89.2875 76.5762 88.9275 76.3551 88.8555 76.3551C88.6875 76.3305 88.5195 76.5025 88.6635 76.7482C88.6635 76.7482 88.6875 76.7728 88.7355 76.8219C88.7595 76.8465 88.7835 76.8956 88.8555 76.9938C89.0715 77.3132 89.3835 77.3623 89.5035 77.2149H89.5275C89.5515 77.2641 89.5755 77.2886 89.5755 77.3132L89.5995 77.3378C89.5995 77.3378 89.5995 77.3378 89.5995 77.3623C89.5755 77.3869 89.4795 77.4606 89.3355 77.5589C89.0235 77.78 88.7115 78.0256 88.4475 78.2713L88.3755 78.345H88.3515C88.3515 78.345 88.2555 78.2222 88.2315 78.2222V78.1976L88.2795 78.1485C88.3515 78.0502 88.3515 77.9028 88.2795 77.7063C88.2555 77.6326 87.9195 77.1904 87.2715 76.3797C87.1035 76.1586 86.9835 76.0112 86.9355 75.9866C86.7915 75.8638 86.6235 75.8147 86.5035 75.8884L86.4315 75.9375H86.4075C86.3355 75.8638 86.3115 75.8392 86.3115 75.8147C86.7435 75.397 87.6795 74.6846 87.7035 74.6846H87.7275C87.8235 74.7829 87.8475 74.832 87.8235 74.8566L87.7275 74.9057C87.6315 74.9548 87.6075 75.0777 87.6315 75.2251C87.6555 75.3479 87.7035 75.4707 87.7995 75.6181C87.7995 75.6181 87.8475 75.6918 87.9195 75.7901C87.9435 75.8147 88.0635 75.9866 88.2795 76.306H88.3275C88.3275 76.2814 88.7595 74.8811 88.7835 74.8566C88.8075 74.6846 88.7595 74.5618 88.6635 74.4881C88.5915 74.4389 88.4955 74.4389 88.3995 74.4881C88.3515 74.5126 88.3515 74.5126 88.3275 74.5126C88.2555 74.4389 88.2315 74.3407 88.2315 74.3407C88.2315 74.3407 89.5515 73.5791 89.6235 73.5791C89.6955 73.6774 89.7195 73.7511 89.6955 73.7511L89.5995 73.8248C89.5035 73.8985 89.4315 74.0459 89.3355 74.2915C89.0955 74.9794 88.9275 75.4953 88.8555 75.7655Z" fill="#333333"/>
<path d="M95.7676 74.0701C95.7676 74.0701 95.5996 74.0946 95.5756 74.0946L95.4796 74.0209C95.0716 73.6524 94.5676 73.7998 94.4716 73.8981C94.3996 73.9718 94.3756 74.0946 94.3996 74.2666C94.4716 74.6842 94.5436 75.1264 95.3356 74.9299C96.0076 74.7579 96.3436 74.1683 96.4636 73.9718C96.5116 73.9718 96.5356 73.9964 96.5596 73.9964L96.6076 74.0209H96.6316L96.3436 75.1756C96.3436 75.1756 96.1516 75.2001 95.7916 75.2001C95.0956 75.2493 94.3996 75.3475 93.7036 75.5195C93.5596 75.5441 93.4876 75.5686 93.4876 75.5686C93.4876 75.5686 93.4876 75.5686 93.4636 75.5686L93.4156 75.4212C93.4156 75.4212 93.4156 75.4212 93.4156 75.3967L93.5116 75.3475C93.6076 75.2738 93.6556 75.1264 93.6316 74.9053C93.6316 74.8808 93.5836 74.6597 93.4876 74.2912C93.4636 74.2175 93.4636 74.1683 93.4396 74.0946C93.2956 73.4559 93.2236 73.0628 93.1756 72.9646C93.0796 72.6698 92.9116 72.5469 92.6476 72.5715C92.6476 72.5224 92.6236 72.4732 92.6236 72.4487L92.5996 72.3995C93.5596 72.1293 94.6396 71.9573 95.7916 71.9082C95.8156 71.9328 96.1996 72.8172 96.1996 72.8417V72.8663L96.0316 72.94C96.0316 72.94 96.0316 72.94 96.0076 72.94C95.6716 72.5224 95.2156 72.3013 94.6396 72.2767C94.1596 72.2767 94.0636 72.4241 94.1356 72.7435C94.2076 73.1365 94.2556 73.3576 94.2796 73.4068C94.4716 73.7507 95.2156 73.505 95.4076 73.0874L95.4556 72.9891C95.4556 72.9646 95.4796 72.9646 95.5516 72.94C95.5756 72.94 95.6236 72.94 95.6476 72.94C95.6716 73.0137 95.7676 74.0455 95.7676 74.0701Z" fill="#333333"/>
<path d="M104.648 77.9769C104.648 77.9769 104.624 77.9523 104.6 77.9032C104.504 77.7312 104.576 77.4856 104.84 77.1416C104.912 77.0434 105.128 76.7486 105.512 76.2327C105.632 76.0853 105.704 75.9625 105.752 75.9133L105.824 75.8396L105.872 75.7414C106.04 75.4711 106.4 75.5694 106.52 76.1836C106.544 76.331 106.544 76.4783 106.52 76.6503C106.496 76.724 106.496 76.7731 106.496 76.7731C106.592 76.8223 106.664 76.8223 106.712 76.7977C106.76 76.6994 106.832 76.4292 106.952 75.9625L106.976 75.8642C106.976 75.8396 106.352 75.2992 105.992 75.0289C105.416 74.6113 104.96 74.2919 104.672 74.1445L103.856 74.6359H103.832L103.928 74.8324H103.952L104.072 74.7833C104.504 74.6113 105.032 74.685 105.128 74.8324C105.176 74.9552 105.152 75.1026 104.984 75.3237C104.792 75.5694 104.528 75.9379 104.168 76.4292C103.952 76.724 103.832 76.8714 103.784 76.9205C103.64 77.0434 103.424 77.0925 103.28 76.9697C103.256 76.9697 103.208 77.0188 103.184 77.0925V77.1171L103.28 77.1662C103.544 77.3136 103.832 77.5347 104.168 77.8049C104.384 77.9769 104.48 78.0506 104.504 78.0752C104.528 78.0506 104.552 78.026 104.576 77.9769H104.648Z" fill="#333333"/>
<path d="M100.999 75.8152C100.999 75.8152 101.023 75.8152 101.047 75.8152C101.168 75.8643 101.36 75.7169 101.456 75.5449C101.504 75.4712 101.72 74.9799 102.104 74.0464C102.224 73.7761 102.272 73.6042 102.296 73.5305C102.32 73.2848 102.272 73.1128 102.104 73.0391C102.104 73.0146 102.104 72.9409 102.152 72.8672C102.2 72.8672 103.472 73.4076 103.76 73.6042C103.76 73.6287 103.736 73.6779 103.688 73.727C103.688 73.727 103.664 73.727 103.64 73.7024C103.424 73.6042 103.232 73.7516 103.112 73.9481C103.112 73.9727 103.04 74.0955 102.944 74.3412C102.752 74.7834 102.56 75.201 102.368 75.5941C102.272 75.7906 102.224 75.9134 102.224 75.9871C102.2 76.1837 102.272 76.3311 102.416 76.3802C102.416 76.4293 102.392 76.4785 102.344 76.5522C102.344 76.5522 102.224 76.503 102.032 76.4048C101.744 76.2574 101.48 76.1345 101.264 76.0363C101.096 75.9626 100.999 75.9134 100.975 75.9134C100.951 75.938 100.999 75.8152 100.999 75.8152Z" fill="#333333"/>
<path d="M90.416 73.4319C90.368 73.4319 90.32 73.4319 90.296 73.4319L90.248 73.4565C90.248 73.4565 90.248 73.4565 90.224 73.4565C90.224 73.4565 90.224 73.4565 90.2 73.4565L90.1279 73.3091V73.2845C90.368 73.1371 91.7605 72.5967 91.9046 72.5967C91.9526 72.6704 91.9766 72.7195 91.9526 72.7686C91.6405 72.8669 91.5684 73.088 91.6885 73.4565C91.6885 73.4811 91.7125 73.5548 91.7605 73.653C91.9526 74.1198 92.0966 74.562 92.2407 74.9551C92.3367 75.1761 92.4087 75.3481 92.4808 75.4218C92.5288 75.4709 92.6008 75.5201 92.6488 75.5446C92.6968 75.5692 92.7448 75.5692 92.7448 75.5692C92.7929 75.5446 92.8409 75.5446 92.8649 75.5446C92.9129 75.5938 92.9369 75.6675 92.9369 75.7412C92.9369 75.7412 92.7929 75.7903 92.5288 75.8886C92.2887 75.9623 92.0246 76.0851 91.7365 76.2079C91.5924 76.2571 91.5204 76.3062 91.5204 76.3062C91.4964 76.2571 91.4484 76.1588 91.4484 76.1342L91.5204 76.0605C91.5924 75.9868 91.6165 75.7412 91.5444 75.5692C91.4724 75.4218 91.3043 74.9796 90.9922 74.2918C90.9922 74.2672 90.9202 74.1444 90.8242 73.8987C90.7762 73.7759 90.7281 73.6776 90.6561 73.6285C90.6081 73.4811 90.5121 73.4319 90.416 73.4319Z" fill="#333333"/>
<path d="M108.2 88.0239C108.2 94.5831 103.016 99.9141 96.5838 99.9141C90.1758 99.9141 84.9678 94.6077 84.9678 88.0239C84.9678 81.4646 90.1518 76.1583 96.5838 76.1583C103.016 76.1337 108.2 81.4646 108.2 88.0239Z" fill="#333333"/>
<path d="M95.2874 98.3915C95.3594 98.3915 95.3834 98.3915 95.3834 98.3915C95.4554 98.3669 95.5034 98.2687 95.5034 98.1213C95.5034 96.0331 95.5034 90.5793 95.5274 90.5548L95.5754 90.4565C95.5754 90.4565 95.8634 89.7441 96.1034 89.1791C96.1274 89.2036 96.1274 89.2036 96.1514 89.2282C96.1754 89.2528 96.2234 89.4247 96.2954 89.7441C96.3434 89.9652 98.3354 97.9493 98.3354 97.9493C98.3594 98.0721 98.3834 98.1458 98.3834 98.1704C98.4314 98.2687 98.5274 98.3178 98.6474 98.2932C98.8634 98.2687 99.9434 97.9493 100.063 97.8265C100.135 97.7528 100.159 97.6545 100.135 97.5317L100.111 97.4334C99.8474 96.3525 97.4954 86.8207 97.3754 86.4276L97.3514 86.3293C97.3274 86.2802 100.207 79.3525 100.447 78.7137C100.495 78.5663 100.519 78.4681 100.471 78.3944C100.399 78.2715 99.0554 77.7556 98.8874 77.8539C98.8394 77.8785 98.7914 77.9522 98.7194 78.1241C98.6474 78.2961 95.7194 85.3713 95.6474 85.5187L95.5994 85.6169L95.5514 85.7152C95.5514 85.7152 95.5274 85.7397 95.5034 85.7397C95.5034 85.7152 95.4794 77.8293 95.4794 77.8048C95.4554 77.6819 95.3834 77.6328 95.2634 77.6328C94.9754 77.6328 93.7994 77.9522 93.7034 78.0259C93.6314 78.075 93.6074 78.1978 93.6074 78.4435C93.6074 79.4262 93.6314 97.0895 93.6314 97.2369C93.6074 97.6299 93.6314 97.8756 93.6554 97.9247C93.7754 98.0721 95.0234 98.3669 95.2874 98.3915Z" fill="white"/>
<path d="M100.88 97.2128C101.096 97.262 102.224 96.7461 103.112 96.0582C103.688 95.5914 103.832 95.4932 104.168 95.051C104.768 94.2894 105.056 93.3559 105.056 92.2258C105.056 89.8183 105.056 88.5654 105.032 88.4672C104.912 87.3617 104.048 86.8703 103.376 86.8458C103.28 86.8458 103.088 86.8458 102.8 86.8458C102.584 86.8458 102.44 86.7475 102.344 86.5755C102.32 86.5018 102.296 86.4036 102.296 86.2316C102.272 83.4556 102.272 82.0307 102.296 81.9325C102.32 81.6868 102.584 81.4903 102.872 81.7359C102.968 81.8096 103.52 82.4484 104.024 83.3082C104.12 83.4556 104.192 83.6276 104.288 83.8241C104.36 83.9715 104.432 84.0698 104.504 84.0943C104.648 84.168 104.888 84.168 104.984 83.8978C105.056 83.7013 105.176 82.3501 104.84 81.7851C104.432 81.1218 103.304 79.8935 102.824 79.6478C101.888 79.181 100.76 79.8935 100.76 80.9498C100.76 84.905 100.76 86.944 100.784 87.0177C100.856 87.6565 101.168 88.0987 101.672 88.3935C101.888 88.5163 102.176 88.59 102.536 88.59H102.656C102.752 88.59 102.872 88.59 102.992 88.59C103.256 88.59 103.424 88.7128 103.496 88.9339C103.52 89.0076 103.544 89.6464 103.52 90.801C103.52 91.2677 103.52 91.6117 103.52 91.8573C103.52 93.0611 103.472 93.1839 103.304 93.577C103.112 94.0192 102.92 94.2648 102.152 94.8053C101.72 95.1247 101.336 95.3458 100.976 95.4686C100.808 95.5423 100.736 95.5914 100.736 95.6651V97.0654C100.736 97.09 100.76 97.1391 100.832 97.1637C100.832 97.1883 100.856 97.1883 100.88 97.2128Z" fill="white"/>
<path d="M88.0156 93.5273V82.3987C88.0156 82.3741 88.4956 81.5634 89.0716 80.9247C89.5756 80.3597 89.9596 79.9912 90.2236 79.8684C91.1596 79.3525 92.2396 80.0895 92.3356 81.0967C92.3596 81.2687 92.3596 83.7253 92.3596 88.4912C92.3596 88.8843 92.3116 89.2036 92.2156 89.4002C91.9516 90.0389 91.4476 90.3828 90.7276 90.3828C89.9116 90.3828 89.5036 90.3828 89.5036 90.3828V95.2961C89.5036 95.3207 89.4796 95.3207 89.4556 95.3452C89.4316 95.3698 89.4076 95.3698 89.3596 95.3698C89.2636 95.3698 88.0156 93.8221 88.0156 93.5273ZM90.4156 81.6863C90.1756 81.9319 89.5276 82.7181 89.5276 82.7672V88.5158V88.7123H90.4876C90.6556 88.7123 90.8716 88.4912 90.8716 88.2701V81.8337C90.8716 81.7354 90.7516 81.6126 90.6316 81.6126C90.5596 81.588 90.4876 81.6126 90.4156 81.6863Z" fill="white"/>
<path d="M89.384 99.5464H89.36C89.36 99.5464 89.168 99.8167 88.808 100.357C88.544 100.775 88.4 100.996 88.376 100.996C88.256 101.266 88.28 101.463 88.472 101.635C88.448 101.684 88.424 101.733 88.376 101.807C88.304 101.807 87.44 101.168 87.416 101.168C87.416 101.168 87.44 101.094 87.512 100.996C87.728 101.07 87.944 100.971 88.112 100.726C88.544 100.087 88.856 99.6447 89.024 99.399C89.24 99.1042 89.312 98.8586 89.216 98.6866L89.192 98.6375C89.192 98.6129 89.216 98.5638 89.288 98.5146C89.312 98.5146 89.456 98.6129 89.72 98.8094C89.888 98.9323 90.008 99.006 90.08 99.0305L90.176 99.0797C90.176 99.0797 90.248 99.3253 90.344 99.8167C90.536 100.75 90.68 101.266 90.752 101.389C90.776 101.34 90.896 101.094 91.112 100.627C91.304 100.185 91.304 99.9149 91.088 99.7921C91.088 99.7675 91.112 99.7184 91.16 99.6447C91.16 99.6447 91.328 99.7184 91.664 99.8658C91.688 99.8658 91.784 99.9149 91.952 99.9886C92.048 100.013 92.096 100.062 92.144 100.087C92.144 100.136 92.144 100.161 92.096 100.21L92.072 100.259V100.283C92 100.234 91.688 100.21 91.52 100.578C91.52 100.578 91.304 101.094 90.92 102.077C90.704 102.617 90.584 102.937 90.56 102.986C90.464 102.961 90.344 102.912 90.2 102.838L89.384 99.5464C89.408 99.5464 89.408 99.5464 89.384 99.5464Z" fill="#333333"/>
<path d="M84.5116 96.6726C84.5356 96.6726 84.5356 96.6726 84.5116 96.6726C84.5596 96.7217 84.5836 96.7708 84.5836 96.7954C84.2716 97.0411 84.3436 97.9255 84.8956 98.2448C85.3036 98.4905 85.6156 98.1711 85.5916 97.8763C85.5916 97.7044 85.4956 97.5078 85.3276 97.2622C85.1356 96.9919 85.0396 96.82 85.0156 96.7463C84.7756 96.0584 85.3996 95.3705 86.2876 95.6899C86.9116 95.911 87.4156 96.648 87.5116 97.1148C87.4396 97.1639 86.9116 97.4587 86.8156 97.4833C86.7676 97.4341 86.7676 97.385 86.7676 97.385L86.8396 97.3113C87.0796 97.0656 86.9116 96.2795 86.3596 96.1321C85.9756 96.0093 85.6396 96.4515 86.0956 97.0411C86.2876 97.2867 86.4076 97.4833 86.4556 97.6552C86.6956 98.4414 85.9516 99.1538 84.9676 98.687C84.5116 98.4905 84.1756 98.122 83.9356 97.6307C83.8636 97.4833 83.8156 97.2867 83.7676 97.0411C83.8156 97.0165 83.9116 96.9428 84.1276 96.82C84.3916 96.7463 84.5116 96.6726 84.5116 96.6726Z" fill="#333333"/>
<path d="M93.4164 100.431C94.3524 100.455 95.0244 101.119 95.0484 101.364C94.9044 101.561 94.7604 101.782 94.6164 102.003C94.5924 102.003 94.5444 101.978 94.5204 101.929C94.6164 101.143 93.9444 100.357 93.1284 100.996C92.4804 101.512 92.2884 102.961 93.0084 103.379C93.2964 103.551 93.9444 103.551 94.3284 102.838L94.5204 102.887V102.912L94.4724 103.649C93.8964 104.017 92.5044 103.919 91.9044 102.789C91.4964 102.052 91.7604 101.29 92.1444 100.922C92.4804 100.603 92.9844 100.431 93.4164 100.431Z" fill="#333333"/>
<path d="M95.312 100.775H95.408H95.528C96.272 100.849 96.992 100.849 97.688 100.8C97.832 100.775 97.904 100.775 97.904 100.775C97.952 100.874 98.216 101.586 98.216 101.635C98.12 101.709 98.048 101.733 98.048 101.709L97.976 101.635C97.76 101.414 97.496 101.291 97.208 101.218C97.088 101.193 96.44 101.095 96.416 101.39L96.392 102.2C96.392 102.225 96.416 102.274 96.488 102.299C96.512 102.323 96.896 102.397 97.28 102.176C97.304 102.151 97.376 102.102 97.52 101.979C97.568 101.93 97.592 101.93 97.592 101.905C97.616 101.881 97.664 101.881 97.688 101.905C97.712 102.2 97.712 102.446 97.736 102.618C97.736 102.741 97.736 102.864 97.76 102.962C97.712 102.986 97.592 102.986 97.592 102.986L97.496 102.913C97.064 102.47 96.488 102.593 96.416 102.765C96.368 102.839 96.368 103.478 96.392 103.551C96.584 104.141 97.784 104.067 98.408 103.036C98.432 103.036 98.48 103.06 98.528 103.109C98.528 103.207 98.456 103.551 98.312 104.067C98.192 104.116 97.76 104.166 96.992 104.166C96.2 104.166 95.168 104.116 95 104.043C95 104.018 95.024 103.969 95.024 103.895C95.312 103.871 95.456 103.723 95.504 103.404C95.6 102.299 95.648 101.66 95.648 101.463C95.624 101.168 95.528 100.996 95.336 100.947C95.288 100.849 95.312 100.8 95.312 100.775Z" fill="#333333"/>
<path d="M85.9761 99.6452C85.9761 99.6452 86.0001 99.6452 86.0481 99.6697C86.2401 99.7434 86.4321 99.6943 86.6001 99.4732C86.7921 99.2521 87.1521 98.8345 87.6561 98.2695C87.8241 98.0729 87.9441 97.9255 87.9681 97.8273C87.9921 97.7536 87.9921 97.6799 87.9921 97.6062C87.9921 97.6062 87.9681 97.557 87.9441 97.4588C87.9681 97.4096 88.0161 97.3851 88.0401 97.3359H88.0641L88.1361 97.4096C88.4481 97.7044 88.6641 97.8764 88.7841 97.9992C88.9281 98.1221 89.0241 98.1958 89.0481 98.1958C89.0481 98.2203 89.0241 98.2695 88.9521 98.3186C88.7361 98.294 88.5201 98.4169 88.3281 98.638C88.2321 98.7608 87.9441 99.1047 87.4401 99.6943C87.2721 99.9154 87.1521 100.038 87.1281 100.112C87.0801 100.21 87.0561 100.48 87.1281 100.554L87.1761 100.603C87.2001 100.628 87.0801 100.726 87.0801 100.751C87.0081 100.751 85.8801 99.768 85.8801 99.7189C85.8561 99.768 85.9761 99.6452 85.9761 99.6452Z" fill="#333333"/>
<path d="M100.64 100.136L100.688 100.259C100.736 100.381 101.313 102.003 101.457 102.371C101.553 102.642 101.673 102.838 101.793 102.912C101.889 102.961 101.985 102.961 102.105 102.936C102.105 102.961 102.129 102.985 102.129 103.035L102.153 103.084L102.177 103.133C101.385 103.428 100.832 103.624 100.52 103.673C100.52 103.649 100.496 103.624 100.496 103.551L100.472 103.501H100.496C100.496 103.501 100.616 103.452 100.688 103.354C100.76 103.231 100.76 103.035 100.688 102.789C100.4 101.806 100.232 101.29 100.208 101.241C100.088 101.069 99.9442 100.996 99.7521 101.069C99.7281 101.02 99.7041 100.946 99.7041 100.922C100.088 100.652 100.352 100.431 100.472 100.308C100.544 100.209 100.616 100.16 100.64 100.136Z" fill="#333333"/>
<path d="M103.352 100.43L103.664 100.406C103.88 100.406 104.6 100.602 104.408 101.462C104.144 102.666 102.272 103.182 102.008 102.199C101.936 101.929 102.008 101.659 102.224 101.364C102.272 101.29 102.296 101.266 102.296 101.266C102.272 101.266 102.2 101.241 102.08 101.241C101.096 101.118 101.264 100.037 102.008 99.546C102.68 99.1038 103.448 99.2267 103.52 99.8163C103.544 100.037 103.424 100.258 103.424 100.283L103.352 100.381V100.43ZM103.136 102.248C103.712 102.297 104.048 101.536 103.568 101.266C103.496 101.217 103.4 101.217 103.256 101.217C103.064 101.241 102.872 101.241 102.728 101.241C102.44 101.634 102.728 102.199 103.136 102.248ZM102.464 100.529C102.632 100.529 102.728 100.504 102.776 100.48C103.064 99.6689 102.224 99.4723 101.96 100.013C101.888 100.185 101.912 100.332 102.032 100.455C102.128 100.48 102.272 100.529 102.464 100.529Z" fill="#333333"/>
<path d="M104.744 99.7184H104.696C104.192 99.7921 103.904 99.5956 103.832 99.178C103.688 98.4164 104.648 97.4829 105.416 97.7285C105.632 97.8022 105.92 98.0233 105.8 98.4655C105.8 98.4901 105.776 98.5392 105.752 98.5884C105.704 98.6866 105.704 98.7358 105.704 98.7358L105.824 98.6866C106.448 98.4901 107.24 98.8586 106.88 99.8904C106.52 100.898 105.08 101.389 104.648 100.701C104.504 100.455 104.504 100.161 104.672 99.8167C104.744 99.7675 104.768 99.743 104.744 99.7184ZM105.704 100.48C106.208 100.554 106.568 99.9395 106.304 99.6201C106.184 99.4727 106.016 99.4236 105.8 99.4973L105.704 99.5219L105.584 99.5464C105.392 99.5956 105.272 99.6201 105.272 99.6447C105.08 99.7675 105.2 100.406 105.704 100.48ZM104.624 99.006C104.696 99.006 104.864 99.006 105.08 98.9323L105.176 98.9077C105.2 98.9077 105.224 98.8832 105.248 98.8586C105.272 98.5147 105.176 98.2936 104.984 98.1953C104.792 98.1216 104.384 98.2444 104.336 98.6129C104.312 98.7358 104.384 98.9569 104.624 99.006Z" fill="#333333"/>
<path d="M106.665 95.6641C106.689 95.6641 107.169 96.0326 108.081 96.7941C108.201 96.8924 108.297 96.9415 108.345 96.9661C108.393 96.8924 108.537 96.6467 108.417 96.3028C108.417 96.2782 108.393 96.2537 108.393 96.2045C108.489 96.1554 108.537 96.1308 108.561 96.1308C108.609 96.2291 108.705 96.4256 108.849 96.7204C108.921 96.8678 108.969 96.9661 108.969 97.0152C108.921 97.0152 108.897 97.0398 108.897 97.0398L108.873 97.0644H108.777C108.753 97.0644 108.609 97.1381 108.633 97.1872C108.801 97.3346 108.921 97.4083 108.993 97.4329C109.113 97.4574 109.233 97.4083 109.329 97.31C109.377 97.3346 109.425 97.3837 109.449 97.4083C109.449 97.4329 109.305 97.654 108.993 98.047C108.729 98.391 108.537 98.612 108.417 98.7103C108.393 98.7103 108.345 98.6612 108.273 98.5875C108.273 98.5629 108.273 98.5629 108.273 98.5629L108.321 98.4892C108.369 98.4401 108.441 98.2681 108.369 98.1453C108.345 98.1207 108.297 98.0716 108.225 97.9979C108.177 97.9488 108.129 97.8996 108.057 97.8751H108.033C107.649 98.2927 107.385 98.5875 107.217 98.7349C107.121 98.8331 107.073 98.8823 107.073 98.8823H107.049C107.049 98.8823 106.929 98.7594 106.905 98.7349C106.881 98.7103 106.857 98.6612 106.857 98.6366V98.5384C106.857 98.5138 106.833 98.4155 106.809 98.219C106.617 96.6467 106.521 95.8606 106.545 95.836L106.593 95.7869L106.641 95.7378C106.641 95.6886 106.665 95.6641 106.665 95.6641ZM107.145 98.2927H107.169C107.289 98.1699 107.481 97.9733 107.769 97.654C107.721 97.5803 107.001 96.9661 107.001 96.9661C106.977 96.9661 106.977 96.9661 106.977 96.9661C106.977 96.9661 107.001 97.31 107.097 97.9733C107.121 98.1453 107.145 98.2436 107.145 98.2927Z" fill="#333333"/>
<path d="M84.2484 85.9611C84.2484 85.9611 83.8404 85.912 83.4084 86.1085C83.0244 86.2805 82.8564 86.4033 82.6164 86.821C82.6644 86.3788 82.7124 86.1085 82.7844 85.9611C82.8324 85.8629 82.9524 85.7892 83.0244 85.6909C83.7684 84.7328 83.4324 84.0204 83.1684 83.7256C83.0964 83.7256 82.4724 83.9467 82.3044 84.7574C82.2564 85.0276 82.3044 85.3961 82.4004 85.7155C82.4484 85.8874 82.4484 85.9611 82.4244 86.1577C82.3764 86.5262 82.3524 86.7227 82.3284 86.7473C82.2804 86.2805 81.9924 85.9366 81.7044 85.7155C81.4884 85.5681 81.2964 85.4207 81.0564 85.3715C81.0564 85.3715 80.9604 85.7155 81.2964 86.3788C81.4884 86.7718 81.8724 87.0421 82.2804 87.1895C82.2564 87.6317 82.2564 87.8282 82.2804 87.8528L82.3044 88.5652H82.2804C81.9204 87.4843 80.8884 87.3123 80.6964 87.3123C80.6964 87.3123 80.6724 87.9265 81.2244 88.4915C81.4884 88.7617 81.8724 88.9582 82.3284 89.0811C82.3524 89.7198 82.2804 90.1374 82.4484 90.2603H82.6164C82.6404 90.2603 82.6884 90.2603 82.7124 90.2357C82.7124 90.2111 82.7364 90.162 82.7364 90.0883V89.6952L82.6404 89.0565C82.6644 89.0319 82.7364 89.0074 82.8564 88.9828C83.5524 88.7863 84.1524 88.295 84.3444 87.6071C84.3684 87.5088 84.3684 87.4597 84.3684 87.4597C84.3444 87.4597 83.9364 87.4597 83.5764 87.6562C83.2404 87.8282 82.9524 88.0738 82.7604 88.3932C82.6884 88.4915 82.6644 88.5652 82.6404 88.5897H82.6164C82.5924 88.516 82.5684 87.4597 82.6164 87.2386C83.3604 87.0666 83.6004 86.9684 84.0324 86.4525C84.1044 86.3542 84.2724 85.9611 84.2484 85.9611Z" fill="#333333"/>
<path d="M108.968 85.9611C108.968 85.9611 109.376 85.912 109.808 86.1085C110.192 86.2805 110.36 86.4033 110.6 86.821C110.552 86.3788 110.504 86.1085 110.432 85.9611C110.384 85.8629 110.264 85.7892 110.192 85.6909C109.448 84.7328 109.784 84.0204 110.048 83.7256C110.12 83.7256 110.744 83.9467 110.912 84.7574C110.96 85.0276 110.912 85.3961 110.816 85.7155C110.768 85.8874 110.768 85.9611 110.792 86.1577C110.84 86.5262 110.864 86.7227 110.888 86.7473C110.936 86.2805 111.224 85.9366 111.512 85.7155C111.728 85.5681 111.92 85.4207 112.16 85.3715C112.16 85.3715 112.256 85.7155 111.92 86.3788C111.728 86.7718 111.344 87.0421 110.936 87.1895C110.96 87.6317 110.96 87.8282 110.96 87.8528L110.936 88.5652H110.96C111.32 87.4843 112.352 87.3123 112.544 87.3123C112.544 87.3123 112.568 87.9265 112.016 88.4915C111.752 88.7617 111.368 88.9582 110.912 89.0811C110.888 89.7198 110.96 90.1374 110.792 90.2603H110.624C110.6 90.2603 110.552 90.2603 110.528 90.2357C110.528 90.2111 110.504 90.162 110.504 90.0883V89.6952L110.6 89.0565C110.576 89.0319 110.504 89.0074 110.384 88.9828C109.688 88.7863 109.088 88.295 108.896 87.6071C108.872 87.5088 108.872 87.4597 108.872 87.4597C108.896 87.4597 109.28 87.4597 109.664 87.6562C110 87.8282 110.288 88.0738 110.48 88.3932C110.528 88.4915 110.576 88.5652 110.6 88.5897H110.624C110.648 88.516 110.672 87.4597 110.624 87.2386C109.88 87.0666 109.64 86.9684 109.208 86.4525C109.112 86.3542 108.92 85.9611 108.968 85.9611Z" fill="#333333"/>
<path d="M118.232 76.1338H125.384V85.1006L132.872 76.1338H142.4L133.976 85.0514L142.784 99.865H133.952L129.104 90.1367L125.384 94.141V99.865H118.232V76.1338Z" fill="#333333"/>
<path d="M143.816 76.1338H150.248V80.6295H143.816V76.1338ZM143.816 82.6685H150.248V99.865H143.816V82.6685Z" fill="#333333"/>
<path d="M171.872 92.8892H158.96C159.08 93.9456 159.368 94.7563 159.8 95.2722C160.424 96.0337 161.24 96.4022 162.248 96.4022C162.872 96.4022 163.496 96.2303 164.048 95.9109C164.408 95.7144 164.768 95.3459 165.176 94.83L171.512 95.4196C170.552 97.1392 169.376 98.3921 168.008 99.1291C166.64 99.8907 164.672 100.259 162.104 100.259C159.872 100.259 158.12 99.9398 156.848 99.3011C155.576 98.6624 154.52 97.6306 153.68 96.2303C152.84 94.83 152.432 93.184 152.432 91.2924C152.432 88.5901 153.272 86.4283 154.952 84.7577C156.632 83.0872 158.96 82.252 161.912 82.252C164.312 82.252 166.208 82.6205 167.6 83.382C168.992 84.119 170.048 85.1999 170.792 86.6248C171.512 88.0496 171.872 89.8921 171.872 92.1522V92.8892ZM165.344 89.7447C165.224 88.4673 164.888 87.5337 164.336 86.9933C163.784 86.4283 163.064 86.158 162.176 86.158C161.144 86.158 160.328 86.5757 159.704 87.4109C159.32 87.9268 159.056 88.7129 158.96 89.7447H165.344Z" fill="#333333"/>
<path d="M171.729 82.6699H177.969L180.657 93.5037L184.113 82.6699H189.873L193.425 93.4792L196.137 82.6699H202.305L196.137 99.8665H190.425L187.017 89.524L183.729 99.8665H177.969L171.729 82.6699Z" fill="#333333"/>
<path d="M203.288 76.1338H209.72V80.6295H203.288V76.1338ZM203.288 82.6685H209.72V99.865H203.288V82.6685Z" fill="#333333"/>
<path d="M220.447 76.1338V82.6685H223.975V87.5081H220.447V93.6006C220.447 94.3376 220.519 94.8289 220.663 95.05C220.879 95.4185 221.239 95.5904 221.767 95.5904C222.247 95.5904 223.135 95.3693 223.999 95.0991V99.7667C222.415 100.111 221.167 100.258 219.775 100.258C218.167 100.258 216.991 100.037 216.223 99.6193C215.455 99.2017 214.903 98.563 214.543 97.7032C214.183 96.8433 213.991 95.4676 213.991 93.5514V87.5081H211.615V82.6685H213.991V79.524L220.447 76.1338Z" fill="#333333"/>
</svg>
