<svg width="48" height="48" viewBox="0 0 48 48" fill="none" xmlns="http://www.w3.org/2000/svg">
<path fill-rule="evenodd" clip-rule="evenodd" d="M21.032 30C27.0696 30 30.372 25.3827 30.372 21.3791C30.372 21.2477 30.372 21.117 30.3624 20.987C31.0048 20.5587 31.5592 20.0271 32 19.4186C31.4016 19.6638 30.7656 19.8247 30.1152 19.8956C30.8 19.5168 31.3128 18.9217 31.5584 18.2195C30.9136 18.5724 30.2088 18.8213 29.4736 18.9549C28.2304 17.7351 26.1512 17.676 24.8288 18.8235C23.9768 19.5634 23.6144 20.6665 23.8792 21.7188C21.24 21.5962 18.7808 20.4457 17.1136 18.5532C16.2424 19.9377 16.688 21.7084 18.1304 22.5975C17.608 22.5834 17.0968 22.4535 16.64 22.2187V22.2571C16.6408 23.6992 17.7424 24.9412 19.2736 25.2269C18.7904 25.3488 18.2832 25.3665 17.792 25.2786C18.2216 26.5132 19.4544 27.3587 20.8584 27.3831C19.696 28.2263 18.26 28.6842 16.7816 28.6827C16.5208 28.6819 16.26 28.6679 16 28.6391C17.5016 29.5282 19.248 30 21.032 29.9978" fill="#7D00EB"/>
</svg>
