<svg width="13" height="15" viewBox="0 0 13 15" fill="none" xmlns="http://www.w3.org/2000/svg">
<path d="M2.75 11.25C2.75 11.5938 3.03125 11.875 3.375 11.875H4V14.0625C4 14.5813 4.41875 15 4.9375 15C5.45625 15 5.875 14.5813 5.875 14.0625V11.875H7.125V14.0625C7.125 14.5813 7.54375 15 8.0625 15C8.58125 15 9 14.5813 9 14.0625V11.875H9.625C9.96875 11.875 10.25 11.5938 10.25 11.25V5H2.75V11.25ZM1.1875 5C0.66875 5 0.25 5.41875 0.25 5.9375V10.3125C0.25 10.8313 0.66875 11.25 1.1875 11.25C1.70625 11.25 2.125 10.8313 2.125 10.3125V5.9375C2.125 5.41875 1.70625 5 1.1875 5ZM11.8125 5C11.2937 5 10.875 5.41875 10.875 5.9375V10.3125C10.875 10.8313 11.2937 11.25 11.8125 11.25C12.3313 11.25 12.75 10.8313 12.75 10.3125V5.9375C12.75 5.41875 12.3313 5 11.8125 5ZM8.70625 1.35L9.51875 0.5375C9.64375 0.4125 9.64375 0.21875 9.51875 0.09375C9.39375 -0.03125 9.2 -0.03125 9.075 0.09375L8.15 1.01875C7.65625 0.76875 7.09375 0.625 6.5 0.625C5.9 0.625 5.3375 0.76875 4.8375 1.01875L3.90625 0.09375C3.78125 -0.03125 3.5875 -0.03125 3.4625 0.09375C3.3375 0.21875 3.3375 0.4125 3.4625 0.5375L4.28125 1.35625C3.35625 2.0375 2.75 3.13125 2.75 4.375H10.25C10.25 3.13125 9.64375 2.03125 8.70625 1.35ZM5.25 3.125H4.625V2.5H5.25V3.125ZM8.375 3.125H7.75V2.5H8.375V3.125Z" fill="black"/>
</svg>
